G04*
G04 #@! TF.GenerationSoftware,Altium Limited,Altium Designer,21.0.9 (235)*
G04*
G04 Layer_Color=65535*
%FSLAX25Y25*%
%MOIN*%
G70*
G04*
G04 #@! TF.SameCoordinates,50ADF09E-C92B-48F0-A8A5-EF6B86B84264*
G04*
G04*
G04 #@! TF.FilePolarity,Positive*
G04*
G01*
G75*
%ADD10C,0.00787*%
%ADD11C,0.00500*%
%ADD12C,0.01000*%
%ADD13C,0.00394*%
%ADD14C,0.00315*%
%ADD15C,0.00748*%
D10*
X265189Y306000D02*
G03*
X265189Y306000I-394J0D01*
G01*
X277575Y362083D02*
G03*
X277575Y367083I0J2500D01*
G01*
X303189Y306000D02*
G03*
X303189Y306000I-394J0D01*
G01*
X229189D02*
G03*
X229189Y306000I-394J0D01*
G01*
X277575Y344563D02*
X417575Y344563D01*
Y384917D01*
X277575Y344563D02*
Y362083D01*
Y384917D02*
X417575Y384917D01*
X277575Y367083D02*
Y384917D01*
X244724Y472000D02*
Y475740D01*
X244724D02*
X255945D01*
Y468358D02*
Y475740D01*
X244823Y468358D02*
X255945D01*
X244724D02*
Y472000D01*
X244890Y414000D02*
Y417740D01*
X244890D02*
X256110D01*
Y410358D02*
Y417740D01*
X244988Y410358D02*
X256110D01*
X244890D02*
Y414000D01*
X357307Y323354D02*
X365968D01*
Y317646D02*
Y323354D01*
X357307Y317646D02*
X365968D01*
X357307D02*
Y323354D01*
X357307Y323354D01*
X368398Y317646D02*
X377059D01*
X368398D02*
Y323354D01*
X377059D01*
Y317646D02*
Y323354D01*
X377059Y317646D02*
X377059Y317646D01*
X246457Y452032D02*
X253937D01*
X246457D02*
Y456461D01*
X253937D01*
Y452032D02*
Y456461D01*
X246122Y430236D02*
X253602D01*
X246122D02*
Y434665D01*
X253602D01*
Y430236D02*
Y434665D01*
D11*
X289705Y297142D02*
G03*
X289705Y297142I-6909J0D01*
G01*
X327705D02*
G03*
X327705Y297142I-6909J0D01*
G01*
X253705D02*
G03*
X253705Y297142I-6909J0D01*
G01*
X268500Y317000D02*
X296500D01*
X268500Y279000D02*
Y317000D01*
Y279000D02*
X296500D01*
Y317000D01*
X306500D02*
X334500D01*
X306500Y279000D02*
Y317000D01*
Y279000D02*
X334500D01*
Y317000D01*
X260500Y279000D02*
Y317000D01*
X232500Y279000D02*
X260500D01*
X232500D02*
Y317000D01*
X260500D01*
X246200Y437600D02*
Y440599D01*
X247699D01*
X248199Y440099D01*
Y439100D01*
X247699Y438600D01*
X246200D01*
X247200D02*
X248199Y437600D01*
X251198D02*
X249199D01*
X251198Y439599D01*
Y440099D01*
X250698Y440599D01*
X249699D01*
X249199Y440099D01*
X246600Y459400D02*
Y462399D01*
X248099D01*
X248599Y461899D01*
Y460899D01*
X248099Y460400D01*
X246600D01*
X247600D02*
X248599Y459400D01*
X249599D02*
X250599D01*
X250099D01*
Y462399D01*
X249599Y461899D01*
X245000Y423599D02*
Y420600D01*
X246999D01*
X249998D02*
X247999D01*
X249998Y422599D01*
Y423099D01*
X249499Y423599D01*
X248499D01*
X247999Y423099D01*
X244800Y481599D02*
Y478600D01*
X246799D01*
X247799D02*
X248799D01*
X248299D01*
Y481599D01*
X247799Y481099D01*
D12*
X374154Y326373D02*
G03*
X373848Y341383I-544J7497D01*
G01*
X361944Y341367D02*
G03*
X362250Y326357I544J-7497D01*
G01*
X483500Y481500D02*
X542000D01*
Y399000D02*
Y481500D01*
X483500Y399000D02*
X542000D01*
X483500D02*
Y481500D01*
X509303Y335094D02*
X542768D01*
X509303D02*
Y378795D01*
X542768D01*
Y335094D02*
Y378795D01*
X420500Y399500D02*
Y482000D01*
Y399500D02*
X479000D01*
Y482000D01*
X420500D02*
X479000D01*
X331000Y400500D02*
Y483000D01*
Y400500D02*
X389500D01*
Y483000D01*
X331000D02*
X389500D01*
X361846Y341415D02*
X373846Y341548D01*
X361756Y326366D02*
X373847Y326309D01*
X178500Y485500D02*
X237000D01*
Y403000D02*
Y485500D01*
X178500Y403000D02*
X237000D01*
X178500D02*
Y485500D01*
X114000D02*
X172500D01*
Y403000D02*
Y485500D01*
X114000Y403000D02*
X172500D01*
X114000D02*
Y485500D01*
X266000Y483000D02*
X324500D01*
Y400500D02*
Y483000D01*
X266000Y400500D02*
X324500D01*
X266000D02*
Y483000D01*
X487999Y490998D02*
X485999D01*
X486999D01*
Y486000D01*
X485999Y485000D01*
X485000D01*
X484000Y486000D01*
X493997Y490998D02*
X491997Y489998D01*
X489998Y487999D01*
Y486000D01*
X490998Y485000D01*
X492997D01*
X493997Y486000D01*
Y486999D01*
X492997Y487999D01*
X489998D01*
X279200Y394299D02*
X281199D01*
X282199Y393299D01*
Y390300D01*
X279200D01*
X278200Y391300D01*
X279200Y392299D01*
X282199D01*
X285198Y395298D02*
Y394299D01*
X284198D01*
X286197D01*
X285198D01*
Y391300D01*
X286197Y390300D01*
X289196D02*
Y394299D01*
X290196D01*
X291196Y393299D01*
Y390300D01*
Y393299D01*
X292196Y394299D01*
X293195Y393299D01*
Y390300D01*
X298194D02*
X296194D01*
X295195Y391300D01*
Y393299D01*
X296194Y394299D01*
X298194D01*
X299193Y393299D01*
Y392299D01*
X295195D01*
X303192Y388301D02*
X304192D01*
X305191Y389300D01*
Y394299D01*
X302192D01*
X301193Y393299D01*
Y391300D01*
X302192Y390300D01*
X305191D01*
X308190Y394299D02*
X310190D01*
X311189Y393299D01*
Y390300D01*
X308190D01*
X307191Y391300D01*
X308190Y392299D01*
X311189D01*
X313189Y395298D02*
X314188Y396298D01*
X316188D01*
X317187Y395298D01*
Y394299D01*
X316188Y393299D01*
X315188D01*
X316188D01*
X317187Y392299D01*
Y391300D01*
X316188Y390300D01*
X314188D01*
X313189Y391300D01*
X323185Y390300D02*
X319187D01*
X323185Y394299D01*
Y395298D01*
X322186Y396298D01*
X320186D01*
X319187Y395298D01*
X325185D02*
X326185Y396298D01*
X328184D01*
X329184Y395298D01*
Y394299D01*
X328184Y393299D01*
X329184Y392299D01*
Y391300D01*
X328184Y390300D01*
X326185D01*
X325185Y391300D01*
Y392299D01*
X326185Y393299D01*
X325185Y394299D01*
Y395298D01*
X326185Y393299D02*
X328184D01*
X402700Y482898D02*
Y476900D01*
X406699D01*
X408698Y481898D02*
X409698Y482898D01*
X411697D01*
X412697Y481898D01*
Y480899D01*
X411697Y479899D01*
X410697D01*
X411697D01*
X412697Y478899D01*
Y477900D01*
X411697Y476900D01*
X409698D01*
X408698Y477900D01*
X424999Y491498D02*
X422999D01*
X423999D01*
Y486500D01*
X422999Y485500D01*
X422000D01*
X421000Y486500D01*
X430997Y491498D02*
X426998D01*
Y488499D01*
X428997Y489499D01*
X429997D01*
X430997Y488499D01*
Y486500D01*
X429997Y485500D01*
X427998D01*
X426998Y486500D01*
X232999Y325198D02*
X231999Y326198D01*
X230000D01*
X229000Y325198D01*
Y324199D01*
X230000Y323199D01*
X231999D01*
X232999Y322199D01*
Y321200D01*
X231999Y320200D01*
X230000D01*
X229000Y321200D01*
X234998Y326198D02*
Y320200D01*
X236997Y322199D01*
X238997Y320200D01*
Y326198D01*
X240996Y325198D02*
X241996Y326198D01*
X243995D01*
X244995Y325198D01*
Y324199D01*
X243995Y323199D01*
X242996D01*
X243995D01*
X244995Y322199D01*
Y321200D01*
X243995Y320200D01*
X241996D01*
X240996Y321200D01*
X268999Y325198D02*
X267999Y326198D01*
X266000D01*
X265000Y325198D01*
Y324199D01*
X266000Y323199D01*
X267999D01*
X268999Y322199D01*
Y321200D01*
X267999Y320200D01*
X266000D01*
X265000Y321200D01*
X270998Y326198D02*
Y320200D01*
X272997Y322199D01*
X274997Y320200D01*
Y326198D01*
X280995Y320200D02*
X276996D01*
X280995Y324199D01*
Y325198D01*
X279995Y326198D01*
X277996D01*
X276996Y325198D01*
X344499Y298999D02*
X345499Y299999D01*
Y301998D01*
X344499Y302998D01*
X343500D01*
X342500Y301998D01*
Y299999D01*
X341500Y298999D01*
X340501D01*
X339501Y299999D01*
Y301998D01*
X340501Y302998D01*
X345499Y297000D02*
X339501D01*
X341500Y295000D01*
X339501Y293001D01*
X345499D01*
X339501Y291002D02*
Y289002D01*
Y290002D01*
X345499D01*
X344499Y291002D01*
X509800Y382301D02*
Y388299D01*
X512799D01*
X513799Y387299D01*
Y385300D01*
X512799Y384300D01*
X509800D01*
X516798D02*
X518797D01*
X519797Y385300D01*
Y387299D01*
X518797Y388299D01*
X516798D01*
X515798Y387299D01*
Y385300D01*
X516798Y384300D01*
X521796Y388299D02*
Y385300D01*
X522796Y384300D01*
X523796Y385300D01*
X524795Y384300D01*
X525795Y385300D01*
Y388299D01*
X530793Y384300D02*
X528794D01*
X527794Y385300D01*
Y387299D01*
X528794Y388299D01*
X530793D01*
X531793Y387299D01*
Y386299D01*
X527794D01*
X533792Y388299D02*
Y384300D01*
Y386299D01*
X534792Y387299D01*
X535792Y388299D01*
X536791D01*
X371500Y313000D02*
X368501D01*
X367502Y312000D01*
Y310001D01*
X368501Y309001D01*
X371500D01*
X377498D02*
X373500D01*
X377498Y313000D01*
Y313999D01*
X376499Y314999D01*
X374499D01*
X373500Y313999D01*
X360000Y313500D02*
X357001D01*
X356001Y312500D01*
Y310501D01*
X357001Y309501D01*
X360000D01*
X361999D02*
X363999D01*
X362999D01*
Y315499D01*
X361999Y314499D01*
X335499Y492498D02*
X333499D01*
X334499D01*
Y487500D01*
X333499Y486500D01*
X332500D01*
X331500Y487500D01*
X340497Y486500D02*
Y492498D01*
X337498Y489499D01*
X341497D01*
X270499Y492498D02*
X268499D01*
X269499D01*
Y487500D01*
X268499Y486500D01*
X267500D01*
X266500Y487500D01*
X272498Y491498D02*
X273498Y492498D01*
X275497D01*
X276497Y491498D01*
Y490499D01*
X275497Y489499D01*
X274497D01*
X275497D01*
X276497Y488499D01*
Y487500D01*
X275497Y486500D01*
X273498D01*
X272498Y487500D01*
X118499Y494998D02*
X116499D01*
X117499D01*
Y490000D01*
X116499Y489000D01*
X115500D01*
X114500Y490000D01*
X120498Y489000D02*
X122497D01*
X121498D01*
Y494998D01*
X120498Y493998D01*
X182999Y494998D02*
X180999D01*
X181999D01*
Y490000D01*
X180999Y489000D01*
X180000D01*
X179000Y490000D01*
X188997Y489000D02*
X184998D01*
X188997Y492999D01*
Y493998D01*
X187997Y494998D01*
X185998D01*
X184998Y493998D01*
D13*
X412102Y439236D02*
Y443665D01*
X404622D02*
X412102D01*
X404622Y439236D02*
Y443665D01*
Y439236D02*
X412102D01*
X402224Y410358D02*
Y414000D01*
X402323Y410358D02*
X413445D01*
Y417740D01*
X402224D02*
X413445D01*
X402224Y414000D02*
Y417740D01*
X403957Y453031D02*
X411437D01*
X403957D02*
Y457461D01*
X411437D01*
Y453031D02*
Y457461D01*
X401890Y466358D02*
Y470000D01*
X401988Y466358D02*
X413110D01*
Y473740D01*
X401890D02*
X413110D01*
X401890Y470000D02*
Y473740D01*
D14*
X406032Y446319D02*
Y448681D01*
X407213D01*
X407606Y448287D01*
Y447500D01*
X407213Y447106D01*
X406032D01*
X406819D02*
X407606Y446319D01*
X409574D02*
Y448681D01*
X408394Y447500D01*
X409968D01*
X405532Y458819D02*
Y461181D01*
X406713D01*
X407106Y460787D01*
Y460000D01*
X406713Y459606D01*
X405532D01*
X406319D02*
X407106Y458819D01*
X407894Y460787D02*
X408287Y461181D01*
X409074D01*
X409468Y460787D01*
Y460394D01*
X409074Y460000D01*
X408681D01*
X409074D01*
X409468Y459606D01*
Y459213D01*
X409074Y458819D01*
X408287D01*
X407894Y459213D01*
X406032Y422181D02*
Y419819D01*
X407606D01*
X409574D02*
Y422181D01*
X408394Y421000D01*
X409968D01*
D15*
X387312Y335812D02*
X384688Y333188D01*
Y335812D02*
X387312Y333188D01*
X386000Y335812D02*
Y333188D01*
X384688Y334500D02*
X387312D01*
M02*
