G04*
G04 #@! TF.GenerationSoftware,Altium Limited,Altium Designer,21.0.9 (235)*
G04*
G04 Layer_Color=8421504*
%FSLAX25Y25*%
%MOIN*%
G70*
G04*
G04 #@! TF.SameCoordinates,50ADF09E-C92B-48F0-A8A5-EF6B86B84264*
G04*
G04*
G04 #@! TF.FilePolarity,Positive*
G04*
G01*
G75*
%ADD16R,0.08858X0.01968*%
%ADD17R,0.13780X0.08071*%
%ADD18R,0.01024X0.02362*%
%ADD19R,0.03937X0.05315*%
%ADD20R,0.01968X0.03543*%
D16*
X517571Y363441D02*
D03*
Y360291D02*
D03*
Y357142D02*
D03*
Y353992D02*
D03*
Y350842D02*
D03*
D17*
X534500Y341000D02*
D03*
X517571Y341000D02*
D03*
X534500Y373284D02*
D03*
X517571D02*
D03*
D18*
X406000Y441500D02*
D03*
X410724D02*
D03*
X410059Y455295D02*
D03*
X405335D02*
D03*
X252559Y454295D02*
D03*
X247835D02*
D03*
X252224Y432500D02*
D03*
X247500D02*
D03*
D19*
X405669Y414000D02*
D03*
X410000D02*
D03*
X405335Y470000D02*
D03*
X409665D02*
D03*
X252500Y472000D02*
D03*
X248169D02*
D03*
X252665Y414000D02*
D03*
X248335D02*
D03*
D20*
X364000Y320500D02*
D03*
X359866D02*
D03*
X370366D02*
D03*
X374500D02*
D03*
M02*
