M48
;Layer_Color=9474304
;FILE_FORMAT=2:5
INCH,LZ
;TYPE=PLATED
T1F00S00C0.00787
T2F00S00C0.01799
T3F00S00C0.02362
T4F00S00C0.02756
T5F00S00C0.03898
%
T01
X0415Y02685
X0298Y0364
X0317Y03635
X0332Y03625
X0410931Y0436069
T02
X0363276Y0334264
X0373217Y0334362
T03
X0123Y0414
X0133
X0143
X0153
X0163
X01875
X01975
X02075
X02175
X02275
X0275Y04115
X0285
X0295
X0305
X0315
X034
X035
X036
X037
X038
X04295Y04105
X04395
X04495
X04595
X04695
X04925Y041
X05025
X05125
X05225
X05325
Y047
X05225
X05125
X0502539
X04925
X04695Y04705
X04595
X04495
X0439539
X04295
X038Y04715
X037
X036
X0350039
X034
X0315
X0305
X0295
X0285039
X0275
X02275Y0474
X02175
X02075
X0197539
X01875
X0163
X0153
X0143
X0133039
X0123
T04
X0283264Y0348205
X0293106Y0348303
X0303244Y0348402
X0303343Y0381866
X0293008Y0381965
X0283165Y0381748
X031289Y0382063
X0323323Y038226
X0333461
X0343106Y0381669
X035285Y0381866
X0362693Y0381965
X0372929Y0382358
X0383165Y0381669
X0393402Y0381965
X0403441Y0382161
X0413185Y0381866
X0413087Y0348697
X0403342Y03485
X0393402Y0348598
X0383067Y03485
X0373323Y0348598
X0362772Y0348402
X0353343
X03435Y03485
X0333165Y0348598
X0322929Y0348303
X031348Y03485
T05
X0329Y0284
X03115
X0291
X02735
X0255
X02375
X0237Y0312
X0273
X0311
X02905Y03125
X02545
X03285
M30
