M48
;Layer_Color=9474304
;FILE_FORMAT=2:5
INCH,LZ
;TYPE=PLATED
T1F00S00C0.00787
T2F00S00C0.01799
T3F00S00C0.03150
T4F00S00C0.03937
%
T01
X0047539Y0032185
X0049016Y0041142
X0045866Y0047638
X0065108Y0019636
X008157Y0025664
X0081595Y0064272
X0070669Y0064764
X0060039Y0074705
X006063Y0092126
X005748Y0092126
X0068385Y0091732
X0079921Y0097638
X007815Y0122146
X0065748Y0130315
X0063779Y0147835
X006063
X0057382
X0079921Y015502
X0076279Y0181791
X0070374Y020502
X0079626Y0209055
X0054626Y0174409
X0054035Y0147736
X0051083Y0147835
X004813
X004498Y0147933
X0039272Y0124213
X0039862Y0121457
X0041634Y0115748
X0042421Y0107776
X0045157Y0105463
X0048819Y0112402
X0048031Y0092421
X0051181Y0092421
X0054331Y0092126
X0044882Y0092421
X0041732Y0092224
X0042421Y0084055
X0030807Y0084646
X0031605Y0076382
X0026969Y0075
X0034547Y0066043
X0027756Y0113287
X0025098Y0127362
X0027067Y0183338
X0098917Y0232579
T02
X0062008Y0159843
X0042323
T03
X0009212Y0031496
Y0041339
Y0051181
X0093504
Y0041339
Y0031496
Y0061024
Y0070866
Y0080709
Y0090551
Y0100394
Y0110236
Y0120079
Y0129921
Y0139764
Y0149606
Y0159449
Y0169291
Y0179134
Y0188976
Y0198819
X0009212
Y0188976
Y0179134
Y0169291
Y0159449
Y0149606
Y0139764
Y0129921
Y0120079
Y0110236
Y0100394
Y0090551
Y0080709
Y0070866
Y0061024
T04
X0032165Y0219134
Y0229134
X0042165
Y0219134
X0052165
Y0229134
M30
