G04*
G04 #@! TF.GenerationSoftware,Altium Limited,Altium Designer,21.0.9 (235)*
G04*
G04 Layer_Color=8421504*
%FSLAX25Y25*%
%MOIN*%
G70*
G04*
G04 #@! TF.SameCoordinates,8C7BE193-C278-4644-9D0B-105955A7BB27*
G04*
G04*
G04 #@! TF.FilePolarity,Positive*
G04*
G01*
G75*
%ADD16R,0.03150X0.06693*%
%ADD17R,0.08071X0.13780*%
%ADD18R,0.01968X0.10039*%
%ADD19O,0.04232X0.01772*%
%ADD20R,0.04232X0.01772*%
%ADD21R,0.01772X0.04232*%
%ADD22R,0.04331X0.04921*%
%ADD23R,0.02756X0.05315*%
%ADD24R,0.05315X0.02756*%
%ADD25R,0.06299X0.09843*%
D16*
X88090Y222736D02*
D03*
X72342Y223130D02*
D03*
X56496Y65650D02*
D03*
X40748Y66043D02*
D03*
D17*
X72982Y9990D02*
D03*
Y26919D02*
D03*
X40699Y9990D02*
D03*
X40699Y26919D02*
D03*
D18*
X63140D02*
D03*
X50541D02*
D03*
X53691D02*
D03*
X56841D02*
D03*
X59990D02*
D03*
D19*
X71654Y106299D02*
D03*
D20*
Y109449D02*
D03*
Y112598D02*
D03*
Y115748D02*
D03*
Y118898D02*
D03*
Y122047D02*
D03*
Y125197D02*
D03*
Y128347D02*
D03*
X33858D02*
D03*
Y125197D02*
D03*
Y122047D02*
D03*
Y118898D02*
D03*
Y115748D02*
D03*
Y112598D02*
D03*
Y109449D02*
D03*
Y106299D02*
D03*
D21*
X63779Y136221D02*
D03*
Y98425D02*
D03*
X60630Y136221D02*
D03*
Y98425D02*
D03*
X57480Y136221D02*
D03*
Y98425D02*
D03*
X54331Y136221D02*
D03*
Y98425D02*
D03*
X51181Y136221D02*
D03*
Y98425D02*
D03*
X48031Y136221D02*
D03*
Y98425D02*
D03*
X44882Y136221D02*
D03*
Y98425D02*
D03*
X41732Y136221D02*
D03*
Y98425D02*
D03*
D22*
X74213Y79331D02*
D03*
Y88583D02*
D03*
X70669Y55807D02*
D03*
Y46555D02*
D03*
D23*
X37598Y52067D02*
D03*
X43110D02*
D03*
X56595Y81004D02*
D03*
X62106D02*
D03*
D24*
X85335Y14665D02*
D03*
Y9154D02*
D03*
X41043Y173425D02*
D03*
Y178937D02*
D03*
X61713Y179035D02*
D03*
Y173524D02*
D03*
D25*
X27854Y14665D02*
D03*
X7776D02*
D03*
M02*
