G04*
G04 #@! TF.GenerationSoftware,Altium Limited,Altium Designer,21.0.9 (235)*
G04*
G04 Layer_Physical_Order=1*
G04 Layer_Color=255*
%FSLAX25Y25*%
%MOIN*%
G70*
G04*
G04 #@! TF.SameCoordinates,8C7BE193-C278-4644-9D0B-105955A7BB27*
G04*
G04*
G04 #@! TF.FilePolarity,Positive*
G04*
G01*
G75*
%ADD16R,0.03150X0.06693*%
%ADD17R,0.08071X0.13780*%
%ADD18R,0.01968X0.10039*%
%ADD19O,0.04232X0.01772*%
%ADD20R,0.04232X0.01772*%
%ADD21R,0.01772X0.04232*%
%ADD22R,0.04331X0.04921*%
%ADD23R,0.02756X0.05315*%
%ADD24R,0.05315X0.02756*%
%ADD25R,0.06299X0.09843*%
%ADD41C,0.00591*%
%ADD42C,0.01181*%
%ADD43R,0.09843X0.04724*%
%ADD44O,0.09843X0.04724*%
%ADD45C,0.04724*%
%ADD46R,0.04724X0.04724*%
%ADD47C,0.01575*%
G36*
X102362Y0D02*
X0D01*
Y236221D01*
X102362D01*
Y0D01*
D02*
G37*
%LPC*%
G36*
X99152Y233760D02*
X98682D01*
X98248Y233580D01*
X97916Y233248D01*
X97736Y232814D01*
Y232344D01*
X97916Y231910D01*
X98248Y231577D01*
X98682Y231398D01*
X99152D01*
X99586Y231577D01*
X99919Y231910D01*
X100098Y232344D01*
Y232814D01*
X99919Y233248D01*
X99586Y233580D01*
X99152Y233760D01*
D02*
G37*
G36*
X54921Y231890D02*
X49409D01*
Y229836D01*
X47835D01*
X47566Y229783D01*
X47338Y229631D01*
X44061Y226354D01*
X43914Y226384D01*
X43828Y226911D01*
X43857Y226929D01*
X44371Y227442D01*
X44733Y228070D01*
X44921Y228771D01*
Y229497D01*
X44733Y230198D01*
X44371Y230826D01*
X43857Y231339D01*
X43229Y231702D01*
X42528Y231890D01*
X41802D01*
X41102Y231702D01*
X40473Y231339D01*
X39960Y230826D01*
X39597Y230198D01*
X39409Y229497D01*
Y228771D01*
X39597Y228070D01*
X39960Y227442D01*
X40473Y226929D01*
X40878Y226695D01*
X40745Y226195D01*
X33586D01*
X33452Y226695D01*
X33858Y226929D01*
X34371Y227442D01*
X34733Y228070D01*
X34921Y228771D01*
Y229497D01*
X34733Y230198D01*
X34371Y230826D01*
X33858Y231339D01*
X33229Y231702D01*
X32528Y231890D01*
X31802D01*
X31102Y231702D01*
X30473Y231339D01*
X29960Y230826D01*
X29597Y230198D01*
X29409Y229497D01*
Y228771D01*
X29597Y228070D01*
X29960Y227442D01*
X30473Y226929D01*
X30878Y226695D01*
X30744Y226195D01*
X27854D01*
X27586Y226141D01*
X27358Y225989D01*
X18499Y217131D01*
X18347Y216903D01*
X18294Y216634D01*
Y179366D01*
X11618Y172690D01*
X11466Y172462D01*
X11412Y172193D01*
Y172071D01*
X6653D01*
X5934Y171976D01*
X5264Y171699D01*
X4688Y171257D01*
X4246Y170681D01*
X3968Y170011D01*
X3874Y169291D01*
X3968Y168572D01*
X4246Y167902D01*
X4688Y167326D01*
X5264Y166884D01*
X5934Y166606D01*
X6653Y166512D01*
X11772D01*
X12491Y166606D01*
X12928Y166787D01*
X40439Y139276D01*
Y136811D01*
X40453Y136743D01*
Y133711D01*
X43012D01*
Y138730D01*
X41844D01*
Y139567D01*
X41791Y139836D01*
X41638Y140064D01*
X14015Y167687D01*
X14179Y167902D01*
X14457Y168572D01*
X14551Y169291D01*
X14457Y170011D01*
X14179Y170681D01*
X13737Y171257D01*
X13251Y171630D01*
X13159Y171988D01*
X13156Y172242D01*
X19493Y178578D01*
X19645Y178806D01*
X19699Y179075D01*
Y216343D01*
X28145Y224790D01*
X44193D01*
X44462Y224843D01*
X44690Y224995D01*
X48126Y228431D01*
X49409D01*
Y227135D01*
X49396Y227067D01*
X49409Y226999D01*
Y226378D01*
X50030D01*
X50098Y226364D01*
X50166Y226378D01*
X54921D01*
Y231890D01*
D02*
G37*
G36*
X52528Y221890D02*
X51802D01*
X51102Y221702D01*
X50473Y221339D01*
X49960Y220826D01*
X49597Y220198D01*
X49409Y219497D01*
Y218771D01*
X49597Y218070D01*
X49960Y217442D01*
X50473Y216929D01*
X51102Y216566D01*
X51802Y216378D01*
X52528D01*
X53229Y216566D01*
X53857Y216929D01*
X54371Y217442D01*
X54733Y218070D01*
X54921Y218771D01*
Y219497D01*
X54733Y220198D01*
X54371Y220826D01*
X53857Y221339D01*
X53229Y221702D01*
X52528Y221890D01*
D02*
G37*
G36*
X42528D02*
X41802D01*
X41102Y221702D01*
X40473Y221339D01*
X39960Y220826D01*
X39597Y220198D01*
X39409Y219497D01*
Y218771D01*
X39597Y218070D01*
X39784Y217746D01*
X36028Y213990D01*
X25394D01*
X25125Y213936D01*
X24897Y213784D01*
X21452Y210339D01*
X21300Y210111D01*
X21246Y209842D01*
Y170965D01*
X21300Y170696D01*
X21452Y170468D01*
X43799Y148121D01*
Y147698D01*
X43979Y147264D01*
X44311Y146932D01*
X44368Y146908D01*
Y138730D01*
X43602D01*
Y133711D01*
X46161D01*
Y138730D01*
X45773D01*
Y147055D01*
X45982Y147264D01*
X46161Y147698D01*
Y148168D01*
X45982Y148602D01*
X45649Y148934D01*
X45215Y149114D01*
X44793D01*
X22651Y171256D01*
Y209552D01*
X25685Y212585D01*
X36319D01*
X36588Y212638D01*
X36816Y212791D01*
X40778Y216753D01*
X41102Y216566D01*
X41802Y216378D01*
X42528D01*
X43229Y216566D01*
X43857Y216929D01*
X44371Y217442D01*
X44733Y218070D01*
X44921Y218771D01*
Y219497D01*
X44733Y220198D01*
X44371Y220826D01*
X43857Y221339D01*
X43229Y221702D01*
X42528Y221890D01*
D02*
G37*
G36*
X32528D02*
X31802D01*
X31102Y221702D01*
X30473Y221339D01*
X29960Y220826D01*
X29597Y220198D01*
X29409Y219497D01*
Y218771D01*
X29597Y218070D01*
X29960Y217442D01*
X30473Y216929D01*
X31102Y216566D01*
X31802Y216378D01*
X32528D01*
X33229Y216566D01*
X33858Y216929D01*
X34371Y217442D01*
X34733Y218070D01*
X34921Y218771D01*
Y219497D01*
X34733Y220198D01*
X34371Y220826D01*
X33858Y221339D01*
X33229Y221702D01*
X32528Y221890D01*
D02*
G37*
G36*
X79861Y210236D02*
X79391D01*
X78957Y210056D01*
X78625Y209724D01*
X78445Y209290D01*
Y208820D01*
X78625Y208386D01*
X78957Y208054D01*
X79391Y207874D01*
X79861D01*
X80295Y208054D01*
X80627Y208386D01*
X80807Y208820D01*
Y209290D01*
X80627Y209724D01*
X80295Y210056D01*
X79861Y210236D01*
D02*
G37*
G36*
X98819Y201575D02*
X88189D01*
Y196063D01*
X98819D01*
Y201575D01*
D02*
G37*
G36*
X11772Y201599D02*
X6653D01*
X5934Y201504D01*
X5264Y201226D01*
X4688Y200784D01*
X4246Y200209D01*
X3968Y199538D01*
X3874Y198819D01*
X3968Y198100D01*
X4246Y197429D01*
X4688Y196853D01*
X5264Y196412D01*
X5934Y196134D01*
X6653Y196039D01*
X11772D01*
X12491Y196134D01*
X13161Y196412D01*
X13737Y196853D01*
X14179Y197429D01*
X14457Y198100D01*
X14551Y198819D01*
X14457Y199538D01*
X14179Y200209D01*
X13737Y200784D01*
X13161Y201226D01*
X12491Y201504D01*
X11772Y201599D01*
D02*
G37*
G36*
X96063Y191756D02*
X90945D01*
X90225Y191661D01*
X89555Y191384D01*
X88979Y190942D01*
X88538Y190366D01*
X88260Y189696D01*
X88165Y188976D01*
X88260Y188257D01*
X88538Y187586D01*
X88979Y187011D01*
X89555Y186569D01*
X90225Y186291D01*
X90945Y186197D01*
X96063D01*
X96782Y186291D01*
X97453Y186569D01*
X98028Y187011D01*
X98470Y187586D01*
X98748Y188257D01*
X98843Y188976D01*
X98748Y189696D01*
X98470Y190366D01*
X98028Y190942D01*
X97453Y191384D01*
X96782Y191661D01*
X96063Y191756D01*
D02*
G37*
G36*
X11772D02*
X6653D01*
X5934Y191661D01*
X5264Y191384D01*
X4688Y190942D01*
X4246Y190366D01*
X3968Y189696D01*
X3874Y188976D01*
X3968Y188257D01*
X4246Y187586D01*
X4688Y187011D01*
X5264Y186569D01*
X5934Y186291D01*
X6653Y186197D01*
X11772D01*
X12491Y186291D01*
X13161Y186569D01*
X13737Y187011D01*
X14179Y187586D01*
X14457Y188257D01*
X14551Y188976D01*
X14457Y189696D01*
X14179Y190366D01*
X13737Y190942D01*
X13161Y191384D01*
X12491Y191661D01*
X11772Y191756D01*
D02*
G37*
G36*
X27302Y184520D02*
X26832D01*
X26398Y184340D01*
X26066Y184007D01*
X25886Y183573D01*
Y183103D01*
X26066Y182669D01*
X26398Y182337D01*
X26832Y182157D01*
X27302D01*
X27736Y182337D01*
X28068Y182669D01*
X28248Y183103D01*
Y183573D01*
X28068Y184007D01*
X27736Y184340D01*
X27302Y184520D01*
D02*
G37*
G36*
X74311Y226870D02*
X70374D01*
Y219390D01*
X71339D01*
Y207404D01*
X70134Y206199D01*
X69705Y206021D01*
X69373Y205689D01*
X69193Y205255D01*
Y204785D01*
X69373Y204351D01*
X69705Y204018D01*
X70134Y203841D01*
X75276Y198698D01*
Y182455D01*
X75098Y182026D01*
Y181556D01*
X75278Y181122D01*
X75611Y180790D01*
X76045Y180610D01*
X76515D01*
X76949Y180790D01*
X77281Y181122D01*
X77461Y181556D01*
Y182026D01*
X77283Y182455D01*
Y199114D01*
X77207Y199498D01*
X76989Y199824D01*
X71793Y205020D01*
X73052Y206279D01*
X73270Y206604D01*
X73346Y206988D01*
Y219390D01*
X74311D01*
Y226870D01*
D02*
G37*
G36*
X96063Y181913D02*
X90945D01*
X90225Y181819D01*
X89555Y181541D01*
X88979Y181099D01*
X88538Y180524D01*
X88260Y179853D01*
X88165Y179134D01*
X88260Y178414D01*
X88538Y177744D01*
X88979Y177168D01*
X89555Y176727D01*
X90225Y176449D01*
X90945Y176354D01*
X96063D01*
X96782Y176449D01*
X97453Y176727D01*
X98028Y177168D01*
X98470Y177744D01*
X98748Y178414D01*
X98843Y179134D01*
X98748Y179853D01*
X98470Y180524D01*
X98028Y181099D01*
X97453Y181541D01*
X96782Y181819D01*
X96063Y181913D01*
D02*
G37*
G36*
X11772D02*
X6653D01*
X5934Y181819D01*
X5264Y181541D01*
X4688Y181099D01*
X4246Y180524D01*
X3968Y179853D01*
X3874Y179134D01*
X3968Y178414D01*
X4246Y177744D01*
X4688Y177168D01*
X5264Y176727D01*
X5934Y176449D01*
X6653Y176354D01*
X11772D01*
X12491Y176449D01*
X13161Y176727D01*
X13737Y177168D01*
X14179Y177744D01*
X14457Y178414D01*
X14551Y179134D01*
X14457Y179853D01*
X14179Y180524D01*
X13737Y181099D01*
X13161Y181541D01*
X12491Y181819D01*
X11772Y181913D01*
D02*
G37*
G36*
X96063Y172071D02*
X90945D01*
X90225Y171976D01*
X89555Y171699D01*
X88979Y171257D01*
X88538Y170681D01*
X88260Y170011D01*
X88165Y169291D01*
X88260Y168572D01*
X88538Y167902D01*
X88979Y167326D01*
X89555Y166884D01*
X90225Y166606D01*
X90945Y166512D01*
X96063D01*
X96782Y166606D01*
X97453Y166884D01*
X98028Y167326D01*
X98470Y167902D01*
X98748Y168572D01*
X98843Y169291D01*
X98748Y170011D01*
X98470Y170681D01*
X98028Y171257D01*
X97453Y171699D01*
X96782Y171976D01*
X96063Y172071D01*
D02*
G37*
G36*
Y162229D02*
X90945D01*
X90225Y162134D01*
X89555Y161856D01*
X88979Y161414D01*
X88538Y160839D01*
X88260Y160168D01*
X88165Y159449D01*
X88260Y158729D01*
X88538Y158059D01*
X88979Y157483D01*
X89555Y157042D01*
X90225Y156764D01*
X90945Y156669D01*
X96063D01*
X96782Y156764D01*
X97453Y157042D01*
X98028Y157483D01*
X98470Y158059D01*
X98748Y158729D01*
X98843Y159449D01*
X98748Y160168D01*
X98470Y160839D01*
X98028Y161414D01*
X97453Y161856D01*
X96782Y162134D01*
X96063Y162229D01*
D02*
G37*
G36*
X11772D02*
X6653D01*
X5934Y162134D01*
X5264Y161856D01*
X4688Y161414D01*
X4246Y160839D01*
X3968Y160168D01*
X3874Y159449D01*
X3968Y158729D01*
X4246Y158059D01*
X4688Y157483D01*
X5264Y157042D01*
X5934Y156764D01*
X6653Y156669D01*
X11772D01*
X12491Y156764D01*
X13161Y157042D01*
X13737Y157483D01*
X14179Y158059D01*
X14457Y158729D01*
X14551Y159449D01*
X14457Y160168D01*
X14179Y160839D01*
X13737Y161414D01*
X13161Y161856D01*
X12491Y162134D01*
X11772Y162229D01*
D02*
G37*
G36*
X96063Y152386D02*
X90945D01*
X90225Y152291D01*
X89555Y152014D01*
X88979Y151572D01*
X88538Y150996D01*
X88260Y150326D01*
X88165Y149606D01*
X88260Y148887D01*
X88538Y148216D01*
X88979Y147641D01*
X89555Y147199D01*
X90225Y146921D01*
X90945Y146827D01*
X96063D01*
X96782Y146921D01*
X97453Y147199D01*
X98028Y147641D01*
X98470Y148216D01*
X98748Y148887D01*
X98843Y149606D01*
X98748Y150326D01*
X98470Y150996D01*
X98028Y151572D01*
X97453Y152014D01*
X96782Y152291D01*
X96063Y152386D01*
D02*
G37*
G36*
X11772D02*
X6653D01*
X5934Y152291D01*
X5264Y152014D01*
X4688Y151572D01*
X4246Y150996D01*
X3968Y150326D01*
X3874Y149606D01*
X3968Y148887D01*
X4246Y148216D01*
X4688Y147641D01*
X5264Y147199D01*
X5934Y146921D01*
X6653Y146827D01*
X11772D01*
X12491Y146921D01*
X13161Y147199D01*
X13737Y147641D01*
X14179Y148216D01*
X14457Y148887D01*
X14551Y149606D01*
X14457Y150326D01*
X14179Y150996D01*
X13737Y151572D01*
X13161Y152014D01*
X12491Y152291D01*
X11772Y152386D01*
D02*
G37*
G36*
X96063Y142543D02*
X90945D01*
X90225Y142449D01*
X89555Y142171D01*
X88979Y141729D01*
X88538Y141154D01*
X88260Y140483D01*
X88165Y139764D01*
X88260Y139044D01*
X88538Y138374D01*
X88979Y137798D01*
X89555Y137356D01*
X90225Y137079D01*
X90945Y136984D01*
X96063D01*
X96782Y137079D01*
X97453Y137356D01*
X98028Y137798D01*
X98470Y138374D01*
X98748Y139044D01*
X98843Y139764D01*
X98748Y140483D01*
X98470Y141154D01*
X98028Y141729D01*
X97453Y142171D01*
X96782Y142449D01*
X96063Y142543D01*
D02*
G37*
G36*
X11772D02*
X6653D01*
X5934Y142449D01*
X5264Y142171D01*
X4688Y141729D01*
X4246Y141154D01*
X3968Y140483D01*
X3874Y139764D01*
X3968Y139044D01*
X4246Y138374D01*
X4688Y137798D01*
X5264Y137356D01*
X5934Y137079D01*
X6653Y136984D01*
X11772D01*
X12491Y137079D01*
X13161Y137356D01*
X13737Y137798D01*
X14179Y138374D01*
X14457Y139044D01*
X14551Y139764D01*
X14457Y140483D01*
X14179Y141154D01*
X13737Y141729D01*
X13161Y142171D01*
X12491Y142449D01*
X11772Y142543D01*
D02*
G37*
G36*
X64015Y149016D02*
X63545D01*
X63111Y148836D01*
X62778Y148504D01*
X62598Y148070D01*
Y147600D01*
X62778Y147166D01*
X63077Y146867D01*
Y138730D01*
X62500D01*
Y133711D01*
X65059D01*
Y138730D01*
X64482D01*
Y146867D01*
X64781Y147166D01*
X64961Y147600D01*
Y148070D01*
X64781Y148504D01*
X64449Y148836D01*
X64015Y149016D01*
D02*
G37*
G36*
X60865D02*
X60395D01*
X59961Y148836D01*
X59629Y148504D01*
X59449Y148070D01*
Y147600D01*
X59629Y147166D01*
X59927Y146867D01*
Y138730D01*
X59350D01*
Y133711D01*
X61910D01*
Y138730D01*
X61332D01*
Y146867D01*
X61631Y147166D01*
X61811Y147600D01*
Y148070D01*
X61631Y148504D01*
X61299Y148836D01*
X60865Y149016D01*
D02*
G37*
G36*
X57617D02*
X57147D01*
X56713Y148836D01*
X56381Y148504D01*
X56201Y148070D01*
Y147600D01*
X56381Y147166D01*
X56679Y146867D01*
Y138730D01*
X56201D01*
Y133711D01*
X58760D01*
Y138730D01*
X58084D01*
Y146867D01*
X58383Y147166D01*
X58563Y147600D01*
Y148070D01*
X58383Y148504D01*
X58051Y148836D01*
X57617Y149016D01*
D02*
G37*
G36*
X54270Y148917D02*
X53800D01*
X53366Y148738D01*
X53034Y148405D01*
X52854Y147971D01*
Y147501D01*
X53034Y147067D01*
X53333Y146768D01*
Y138730D01*
X53051D01*
Y133711D01*
X55610D01*
Y138730D01*
X54738D01*
Y146768D01*
X55037Y147067D01*
X55216Y147501D01*
Y147971D01*
X55037Y148405D01*
X54704Y148738D01*
X54270Y148917D01*
D02*
G37*
G36*
X51318Y149016D02*
X50848D01*
X50414Y148836D01*
X50081Y148504D01*
X49902Y148070D01*
Y147600D01*
X50081Y147166D01*
X50380Y146867D01*
Y138730D01*
X49902D01*
Y133711D01*
X52461D01*
Y138730D01*
X51785D01*
Y146867D01*
X52084Y147166D01*
X52264Y147600D01*
Y148070D01*
X52084Y148504D01*
X51752Y148836D01*
X51318Y149016D01*
D02*
G37*
G36*
X48365D02*
X47895D01*
X47461Y148836D01*
X47129Y148504D01*
X46949Y148070D01*
Y147600D01*
X47129Y147166D01*
X47427Y146867D01*
Y138730D01*
X46752D01*
Y133711D01*
X49311D01*
Y138730D01*
X48832D01*
Y146867D01*
X49131Y147166D01*
X49311Y147600D01*
Y148070D01*
X49131Y148504D01*
X48799Y148836D01*
X48365Y149016D01*
D02*
G37*
G36*
X65983Y131496D02*
X65513D01*
X65079Y131316D01*
X64747Y130984D01*
X64567Y130550D01*
Y130080D01*
X64747Y129646D01*
X65079Y129314D01*
X65513Y129134D01*
X65983D01*
X66417Y129314D01*
X66749Y129646D01*
X66929Y130080D01*
Y130550D01*
X66749Y130984D01*
X66417Y131316D01*
X65983Y131496D01*
D02*
G37*
G36*
X96063Y132701D02*
X90945D01*
X90225Y132606D01*
X89555Y132328D01*
X88979Y131887D01*
X88538Y131311D01*
X88260Y130641D01*
X88165Y129921D01*
X88260Y129202D01*
X88538Y128531D01*
X88979Y127956D01*
X89555Y127514D01*
X90225Y127236D01*
X90945Y127142D01*
X96063D01*
X96782Y127236D01*
X97453Y127514D01*
X98028Y127956D01*
X98470Y128531D01*
X98748Y129202D01*
X98843Y129921D01*
X98748Y130641D01*
X98470Y131311D01*
X98028Y131887D01*
X97453Y132328D01*
X96782Y132606D01*
X96063Y132701D01*
D02*
G37*
G36*
X11772D02*
X6653D01*
X5934Y132606D01*
X5264Y132328D01*
X4688Y131887D01*
X4246Y131311D01*
X3968Y130641D01*
X3874Y129921D01*
X3968Y129202D01*
X4246Y128531D01*
X4688Y127956D01*
X5264Y127514D01*
X5934Y127236D01*
X6653Y127142D01*
X11772D01*
X12491Y127236D01*
X13161Y127514D01*
X13737Y127956D01*
X14179Y128531D01*
X14457Y129202D01*
X14551Y129921D01*
X14457Y130641D01*
X14179Y131311D01*
X13737Y131887D01*
X13161Y132328D01*
X12491Y132606D01*
X11772Y132701D01*
D02*
G37*
G36*
X36368Y129626D02*
X31348D01*
Y127067D01*
X35015D01*
X35076Y126976D01*
X34809Y126476D01*
X31348D01*
Y126200D01*
X27679D01*
X26277Y127603D01*
X26100Y128031D01*
X25767Y128364D01*
X25333Y128543D01*
X24863D01*
X24429Y128364D01*
X24097Y128031D01*
X23917Y127597D01*
Y127127D01*
X24097Y126693D01*
X24429Y126361D01*
X24858Y126183D01*
X26554Y124487D01*
X26880Y124270D01*
X27264Y124193D01*
X31348D01*
Y123917D01*
X36368D01*
Y125420D01*
X36830Y125612D01*
X38091Y124351D01*
Y123978D01*
X38270Y123544D01*
X38564Y123250D01*
X38545Y123072D01*
X38411Y122750D01*
X36368D01*
Y123327D01*
X31348D01*
Y120768D01*
X36368D01*
Y121345D01*
X38681D01*
Y121222D01*
X38861Y120788D01*
X39193Y120455D01*
X39627Y120276D01*
X40097D01*
X40531Y120455D01*
X40863Y120788D01*
X41043Y121222D01*
Y121692D01*
X40863Y122126D01*
X40531Y122458D01*
X40097Y122638D01*
X39863D01*
X39763Y123138D01*
X39941Y123211D01*
X40273Y123544D01*
X40453Y123978D01*
Y124448D01*
X40273Y124882D01*
X39941Y125214D01*
X39507Y125394D01*
X39037D01*
X39035Y125393D01*
X36368Y128060D01*
Y129626D01*
D02*
G37*
G36*
X89370Y226490D02*
X89302Y226476D01*
X86122D01*
Y218996D01*
X87388D01*
Y217122D01*
X85921Y215654D01*
X85768Y215426D01*
X85715Y215158D01*
Y167909D01*
X79917Y162111D01*
X77555Y159749D01*
X77402Y159521D01*
X77349Y159252D01*
Y127358D01*
X74663Y124673D01*
X74163Y124880D01*
Y126476D01*
X70496D01*
X70436Y126567D01*
X70703Y127067D01*
X74163D01*
Y129626D01*
X72356D01*
Y150197D01*
X72303Y150466D01*
X72150Y150694D01*
X64389Y158455D01*
X64576Y158779D01*
X64764Y159480D01*
Y160205D01*
X64576Y160906D01*
X64213Y161535D01*
X63700Y162048D01*
X63072Y162411D01*
X62760Y162494D01*
Y171752D01*
X64764D01*
Y175295D01*
X59132D01*
X58819Y175295D01*
X58577Y175760D01*
X60081Y177264D01*
X64764D01*
Y180807D01*
X58661D01*
Y178683D01*
X55391Y175413D01*
X55290D01*
X54861Y175591D01*
X54391D01*
X53962Y175413D01*
X47266D01*
X44094Y178585D01*
Y180709D01*
X37992D01*
Y177165D01*
X42675D01*
X44179Y175662D01*
X44168Y175641D01*
X44168Y175641D01*
X43937Y175197D01*
X43660Y175197D01*
X37992D01*
Y171653D01*
X41620D01*
Y162507D01*
X41259Y162411D01*
X40631Y162048D01*
X40118Y161535D01*
X39755Y160906D01*
X39567Y160205D01*
Y159480D01*
X39755Y158779D01*
X40118Y158150D01*
X40631Y157637D01*
X41259Y157274D01*
X41960Y157087D01*
X42686D01*
X43387Y157274D01*
X44015Y157637D01*
X44528Y158150D01*
X44759Y158550D01*
X55910D01*
X67605Y146855D01*
Y127313D01*
X67658Y127044D01*
X67810Y126816D01*
X69144Y125483D01*
Y124423D01*
X68012D01*
X67743Y124370D01*
X67515Y124217D01*
X62898Y119600D01*
X36368D01*
Y120177D01*
X31348D01*
Y118612D01*
X27259Y114522D01*
X27109Y114298D01*
X27087Y114289D01*
X26755Y113956D01*
X26575Y113522D01*
Y113052D01*
X26755Y112618D01*
X27087Y112286D01*
X27521Y112106D01*
X27991D01*
X28425Y112286D01*
X28757Y112618D01*
X28937Y113052D01*
Y113522D01*
X28757Y113956D01*
X28719Y113995D01*
X30887Y116163D01*
X31348Y115971D01*
Y114469D01*
X36368D01*
Y114744D01*
X40970D01*
X41399Y114567D01*
X41869D01*
X42298Y114744D01*
X61433D01*
X64289Y111889D01*
X64614Y111671D01*
X64999Y111595D01*
X69144D01*
Y111319D01*
X74163D01*
Y113878D01*
X69144D01*
Y113602D01*
X65414D01*
X63268Y115748D01*
X65414Y117894D01*
X69144D01*
Y117618D01*
X74163D01*
Y120177D01*
X69144D01*
Y119901D01*
X65839D01*
X65648Y120363D01*
X68303Y123018D01*
X68916D01*
X68983Y122973D01*
X69144Y122941D01*
Y120768D01*
X74163D01*
Y121093D01*
X77146D01*
Y117345D01*
X76553Y116752D01*
X74163D01*
Y117028D01*
X69144D01*
Y114469D01*
X74163D01*
Y114744D01*
X75965D01*
Y100732D01*
X68144Y92911D01*
X67716Y92734D01*
X67383Y92401D01*
X67204Y91967D01*
Y91497D01*
X67383Y91063D01*
X67716Y90731D01*
X68150Y90551D01*
X68253D01*
X69061Y89743D01*
X69387Y89526D01*
X69771Y89449D01*
X71653D01*
Y85728D01*
X76772D01*
Y91437D01*
X72735D01*
X72638Y91456D01*
X70235D01*
X69916Y91844D01*
X77678Y99607D01*
X77896Y99932D01*
X77972Y100316D01*
Y115332D01*
X78719Y116079D01*
X79219Y115881D01*
Y98606D01*
X78920Y98307D01*
X78740Y97873D01*
Y97403D01*
X78920Y96969D01*
X79252Y96636D01*
X79686Y96457D01*
X80156D01*
X80590Y96636D01*
X80923Y96969D01*
X81102Y97403D01*
Y97873D01*
X80923Y98307D01*
X80624Y98606D01*
Y154052D01*
X80923Y154351D01*
X81102Y154785D01*
Y155255D01*
X80923Y155689D01*
X80590Y156021D01*
X80156Y156201D01*
X79686D01*
X79252Y156021D01*
X78754Y156229D01*
Y158961D01*
X80413Y160621D01*
X82270Y158764D01*
Y90248D01*
X82323Y89979D01*
X82476Y89751D01*
X89035Y83191D01*
X89003Y82692D01*
X88979Y82674D01*
X88538Y82099D01*
X88260Y81428D01*
X88165Y80709D01*
X88260Y79989D01*
X88538Y79319D01*
X88979Y78743D01*
X89555Y78301D01*
X90225Y78024D01*
X90945Y77929D01*
X96063D01*
X96782Y78024D01*
X97453Y78301D01*
X98028Y78743D01*
X98470Y79319D01*
X98748Y79989D01*
X98843Y80709D01*
X98748Y81428D01*
X98470Y82099D01*
X98028Y82674D01*
X97453Y83116D01*
X96782Y83394D01*
X96063Y83488D01*
X90945D01*
X90720Y83459D01*
X90651Y83563D01*
X83675Y90539D01*
Y159055D01*
X83621Y159324D01*
X83469Y159552D01*
X81407Y161614D01*
X86914Y167121D01*
X87066Y167349D01*
X87120Y167618D01*
Y214866D01*
X88587Y216334D01*
X88740Y216562D01*
X88793Y216831D01*
Y218996D01*
X90059D01*
Y225719D01*
X90073Y225787D01*
X90059Y225855D01*
Y226476D01*
X89438D01*
X89370Y226490D01*
D02*
G37*
G36*
X96063Y122858D02*
X90945D01*
X90225Y122764D01*
X89555Y122486D01*
X88979Y122044D01*
X88538Y121469D01*
X88260Y120798D01*
X88165Y120079D01*
X88260Y119359D01*
X88538Y118689D01*
X88979Y118113D01*
X89555Y117672D01*
X90225Y117394D01*
X90945Y117299D01*
X96063D01*
X96782Y117394D01*
X97453Y117672D01*
X98028Y118113D01*
X98470Y118689D01*
X98748Y119359D01*
X98843Y120079D01*
X98748Y120798D01*
X98470Y121469D01*
X98028Y122044D01*
X97453Y122486D01*
X96782Y122764D01*
X96063Y122858D01*
D02*
G37*
G36*
X11772D02*
X6653D01*
X5934Y122764D01*
X5264Y122486D01*
X4688Y122044D01*
X4246Y121469D01*
X3968Y120798D01*
X3874Y120079D01*
X3968Y119359D01*
X4246Y118689D01*
X4688Y118113D01*
X5264Y117672D01*
X5934Y117394D01*
X6653Y117299D01*
X11772D01*
X12491Y117394D01*
X13161Y117672D01*
X13737Y118113D01*
X14179Y118689D01*
X14457Y119359D01*
X14551Y120079D01*
X14457Y120798D01*
X14179Y121469D01*
X13737Y122044D01*
X13161Y122486D01*
X12491Y122764D01*
X11772Y122858D01*
D02*
G37*
G36*
X36368Y113878D02*
X31348D01*
Y111319D01*
X36368D01*
Y111699D01*
X47851D01*
X48150Y111400D01*
X48584Y111221D01*
X49054D01*
X49488Y111400D01*
X49820Y111732D01*
X50000Y112167D01*
Y112636D01*
X49820Y113071D01*
X49488Y113403D01*
X49054Y113583D01*
X48584D01*
X48150Y113403D01*
X47851Y113104D01*
X36368D01*
Y113878D01*
D02*
G37*
G36*
X74163Y110728D02*
X69144D01*
Y110151D01*
X55020D01*
X54751Y110098D01*
X54523Y109946D01*
X47495Y102917D01*
X23435D01*
X23166Y102864D01*
X22938Y102711D01*
X13175Y92948D01*
X13161Y92958D01*
X12491Y93236D01*
X11772Y93331D01*
X6653D01*
X5934Y93236D01*
X5264Y92958D01*
X4688Y92517D01*
X4246Y91941D01*
X3968Y91271D01*
X3874Y90551D01*
X3968Y89832D01*
X4246Y89161D01*
X4688Y88586D01*
X5264Y88144D01*
X5934Y87866D01*
X6653Y87771D01*
X11772D01*
X12491Y87866D01*
X13161Y88144D01*
X13737Y88586D01*
X14179Y89161D01*
X14457Y89832D01*
X14551Y90551D01*
X14457Y91271D01*
X14179Y91941D01*
X14168Y91955D01*
X15136Y92922D01*
X15636Y92715D01*
Y85567D01*
X13175Y83105D01*
X13161Y83116D01*
X12491Y83394D01*
X11772Y83488D01*
X6653D01*
X5934Y83394D01*
X5264Y83116D01*
X4688Y82674D01*
X4246Y82099D01*
X3968Y81428D01*
X3874Y80709D01*
X3968Y79989D01*
X4246Y79319D01*
X4688Y78743D01*
X5264Y78301D01*
X5934Y78024D01*
X6653Y77929D01*
X11772D01*
X12491Y78024D01*
X13161Y78301D01*
X13737Y78743D01*
X14179Y79319D01*
X14457Y79989D01*
X14551Y80709D01*
X14457Y81428D01*
X14179Y82099D01*
X14168Y82112D01*
X16835Y84779D01*
X16988Y85007D01*
X17041Y85276D01*
Y92721D01*
X24848Y100528D01*
X40453D01*
Y95915D01*
X41030D01*
Y93504D01*
X41030Y93504D01*
Y93192D01*
X40731Y92893D01*
X40551Y92459D01*
Y91989D01*
X40731Y91555D01*
X41063Y91223D01*
X41497Y91043D01*
X41967D01*
X42401Y91223D01*
X42734Y91555D01*
X42913Y91989D01*
Y92459D01*
X42734Y92893D01*
X42435Y93192D01*
Y93504D01*
X42435Y93504D01*
Y95915D01*
X43012D01*
Y100528D01*
X43602D01*
Y95915D01*
X44179D01*
Y93389D01*
X43881Y93090D01*
X43701Y92656D01*
Y92186D01*
X43881Y91752D01*
X44213Y91420D01*
X44647Y91240D01*
X45117D01*
X45551Y91420D01*
X45883Y91752D01*
X46063Y92186D01*
Y92656D01*
X45883Y93090D01*
X45584Y93389D01*
Y95915D01*
X46161D01*
Y100528D01*
X46752D01*
Y95915D01*
X47329D01*
Y93389D01*
X47030Y93090D01*
X46850Y92656D01*
Y92186D01*
X47030Y91752D01*
X47363Y91420D01*
X47797Y91240D01*
X48266D01*
X48700Y91420D01*
X49033Y91752D01*
X49213Y92186D01*
Y92656D01*
X49033Y93090D01*
X48734Y93389D01*
Y95915D01*
X49311D01*
Y100528D01*
X49902D01*
Y95915D01*
X50479D01*
Y93389D01*
X50180Y93090D01*
X50000Y92656D01*
Y92186D01*
X50180Y91752D01*
X50512Y91420D01*
X50946Y91240D01*
X51416D01*
X51850Y91420D01*
X52182Y91752D01*
X52362Y92186D01*
Y92656D01*
X52182Y93090D01*
X51884Y93389D01*
Y95915D01*
X52461D01*
Y100528D01*
X53051D01*
Y95915D01*
X53628D01*
Y93094D01*
X53329Y92795D01*
X53150Y92361D01*
Y91891D01*
X53329Y91457D01*
X53662Y91125D01*
X54096Y90945D01*
X54566D01*
X55000Y91125D01*
X55332Y91457D01*
X55512Y91891D01*
Y92361D01*
X55332Y92795D01*
X55033Y93094D01*
Y95915D01*
X55610D01*
Y100528D01*
X56201D01*
Y95915D01*
X56778D01*
Y93094D01*
X56479Y92795D01*
X56299Y92361D01*
Y91891D01*
X56479Y91457D01*
X56811Y91125D01*
X57245Y90945D01*
X57715D01*
X58149Y91125D01*
X58482Y91457D01*
X58661Y91891D01*
Y92361D01*
X58482Y92795D01*
X58183Y93094D01*
Y95915D01*
X58760D01*
Y100528D01*
X59350D01*
Y95915D01*
X59927D01*
Y93094D01*
X59629Y92795D01*
X59449Y92361D01*
Y91891D01*
X59629Y91457D01*
X59961Y91125D01*
X60395Y90945D01*
X60865D01*
X61299Y91125D01*
X61631Y91457D01*
X61811Y91891D01*
Y92361D01*
X61631Y92795D01*
X61332Y93094D01*
Y95915D01*
X61910D01*
Y100528D01*
X62500D01*
Y95915D01*
X63077D01*
Y90842D01*
X61914Y89679D01*
X27677D01*
X27408Y89625D01*
X27180Y89473D01*
X11879Y74171D01*
X11726Y73944D01*
X11673Y73675D01*
Y73646D01*
X6653D01*
X5934Y73551D01*
X5264Y73273D01*
X4688Y72832D01*
X4246Y72256D01*
X3968Y71586D01*
X3874Y70866D01*
X3968Y70147D01*
X4246Y69476D01*
X4688Y68901D01*
X5264Y68459D01*
X5934Y68181D01*
X6653Y68086D01*
X11772D01*
X12491Y68181D01*
X13161Y68459D01*
X13737Y68901D01*
X14179Y69476D01*
X14457Y70147D01*
X14551Y70866D01*
X14457Y71586D01*
X14179Y72256D01*
X13737Y72832D01*
X13452Y73051D01*
X13386Y73688D01*
X13391Y73697D01*
X27968Y88274D01*
X62205D01*
X62474Y88327D01*
X62701Y88480D01*
X64276Y90055D01*
X64429Y90282D01*
X64482Y90551D01*
Y95915D01*
X65059D01*
Y100528D01*
X65354D01*
X65623Y100581D01*
X65851Y100734D01*
X70164Y105046D01*
X70423Y104995D01*
X72884D01*
X73383Y105094D01*
X73806Y105377D01*
X74089Y105800D01*
X74189Y106299D01*
X74089Y106799D01*
X73806Y107222D01*
X73383Y107504D01*
X72884Y107604D01*
X70423D01*
X69924Y107504D01*
X69501Y107222D01*
X69218Y106799D01*
X69119Y106299D01*
X69170Y106040D01*
X65063Y101933D01*
X49150D01*
X48959Y102395D01*
X55311Y108746D01*
X69144D01*
Y108169D01*
X74163D01*
Y110728D01*
D02*
G37*
G36*
X96063Y113016D02*
X90945D01*
X90225Y112921D01*
X89555Y112644D01*
X88979Y112202D01*
X88538Y111626D01*
X88260Y110956D01*
X88165Y110236D01*
X88260Y109517D01*
X88538Y108846D01*
X88979Y108271D01*
X89555Y107829D01*
X90225Y107551D01*
X90945Y107457D01*
X96063D01*
X96782Y107551D01*
X97453Y107829D01*
X98028Y108271D01*
X98470Y108846D01*
X98748Y109517D01*
X98843Y110236D01*
X98748Y110956D01*
X98470Y111626D01*
X98028Y112202D01*
X97453Y112644D01*
X96782Y112921D01*
X96063Y113016D01*
D02*
G37*
G36*
X11772D02*
X6653D01*
X5934Y112921D01*
X5264Y112644D01*
X4688Y112202D01*
X4246Y111626D01*
X3968Y110956D01*
X3874Y110236D01*
X3968Y109517D01*
X4246Y108846D01*
X4688Y108271D01*
X5264Y107829D01*
X5934Y107551D01*
X6653Y107457D01*
X11772D01*
X12491Y107551D01*
X13161Y107829D01*
X13737Y108271D01*
X14179Y108846D01*
X14457Y109517D01*
X14551Y110236D01*
X14457Y110956D01*
X14179Y111626D01*
X13737Y112202D01*
X13161Y112644D01*
X12491Y112921D01*
X11772Y113016D01*
D02*
G37*
G36*
X36368Y110728D02*
X31348D01*
Y108169D01*
X36368D01*
Y108746D01*
X40457D01*
X41240Y107963D01*
Y107541D01*
X41420Y107106D01*
X41615Y106911D01*
X41422Y106411D01*
X36368D01*
Y107579D01*
X31348D01*
Y105020D01*
X34381D01*
X34449Y105006D01*
X44067D01*
X44156Y104794D01*
X44488Y104461D01*
X44922Y104281D01*
X45392D01*
X45826Y104461D01*
X46158Y104794D01*
X46338Y105228D01*
Y105698D01*
X46158Y106132D01*
X45826Y106464D01*
X45392Y106644D01*
X44922D01*
X44488Y106464D01*
X44435Y106411D01*
X43421D01*
X43227Y106911D01*
X43423Y107106D01*
X43602Y107541D01*
Y108010D01*
X43423Y108445D01*
X43090Y108777D01*
X42656Y108957D01*
X42234D01*
X41245Y109946D01*
X41017Y110098D01*
X40748Y110151D01*
X36368D01*
Y110728D01*
D02*
G37*
G36*
X96063Y103173D02*
X90945D01*
X90225Y103079D01*
X89555Y102801D01*
X88979Y102359D01*
X88538Y101784D01*
X88260Y101113D01*
X88165Y100394D01*
X88260Y99674D01*
X88538Y99004D01*
X88979Y98428D01*
X89555Y97986D01*
X90225Y97709D01*
X90945Y97614D01*
X96063D01*
X96782Y97709D01*
X97453Y97986D01*
X98028Y98428D01*
X98470Y99004D01*
X98748Y99674D01*
X98843Y100394D01*
X98748Y101113D01*
X98470Y101784D01*
X98028Y102359D01*
X97453Y102801D01*
X96782Y103079D01*
X96063Y103173D01*
D02*
G37*
G36*
X11772D02*
X6653D01*
X5934Y103079D01*
X5264Y102801D01*
X4688Y102359D01*
X4246Y101784D01*
X3968Y101113D01*
X3874Y100394D01*
X3968Y99674D01*
X4246Y99004D01*
X4688Y98428D01*
X5264Y97986D01*
X5934Y97709D01*
X6653Y97614D01*
X11772D01*
X12491Y97709D01*
X13161Y97986D01*
X13737Y98428D01*
X14179Y99004D01*
X14457Y99674D01*
X14551Y100394D01*
X14457Y101113D01*
X14179Y101784D01*
X13737Y102359D01*
X13161Y102801D01*
X12491Y103079D01*
X11772Y103173D01*
D02*
G37*
G36*
X96063Y93331D02*
X90945D01*
X90225Y93236D01*
X89555Y92958D01*
X88979Y92517D01*
X88538Y91941D01*
X88260Y91271D01*
X88165Y90551D01*
X88260Y89832D01*
X88538Y89161D01*
X88979Y88586D01*
X89555Y88144D01*
X90225Y87866D01*
X90945Y87771D01*
X96063D01*
X96782Y87866D01*
X97453Y88144D01*
X98028Y88586D01*
X98470Y89161D01*
X98748Y89832D01*
X98843Y90551D01*
X98748Y91271D01*
X98470Y91941D01*
X98028Y92517D01*
X97453Y92958D01*
X96782Y93236D01*
X96063Y93331D01*
D02*
G37*
G36*
X31042Y85827D02*
X30572D01*
X30138Y85647D01*
X29806Y85315D01*
X29626Y84881D01*
Y84411D01*
X29806Y83977D01*
X30138Y83644D01*
X30572Y83465D01*
X31042D01*
X31476Y83644D01*
X31808Y83977D01*
X31988Y84411D01*
Y84881D01*
X31808Y85315D01*
X31476Y85647D01*
X31042Y85827D01*
D02*
G37*
G36*
X67520Y86726D02*
X39862D01*
X39593Y86673D01*
X39366Y86520D01*
X35873Y83027D01*
X35720Y82799D01*
X35667Y82531D01*
Y81437D01*
X31793Y77563D01*
X31370D01*
X30936Y77384D01*
X30604Y77051D01*
X30424Y76617D01*
Y76147D01*
X30604Y75713D01*
X30936Y75381D01*
X31370Y75201D01*
X31840D01*
X32274Y75381D01*
X32606Y75713D01*
X32786Y76147D01*
Y76570D01*
X36866Y80650D01*
X37018Y80877D01*
X37072Y81146D01*
Y82240D01*
X40153Y85321D01*
X41310D01*
X41517Y84821D01*
X41420Y84724D01*
X41240Y84290D01*
Y83820D01*
X41420Y83386D01*
X41752Y83054D01*
X42186Y82874D01*
X42656D01*
X43090Y83054D01*
X43423Y83386D01*
X43602Y83820D01*
Y84290D01*
X43423Y84724D01*
X43326Y84821D01*
X43533Y85321D01*
X67229D01*
X71653Y80896D01*
Y76476D01*
X76772D01*
Y82185D01*
X72352D01*
X68016Y86520D01*
X67788Y86673D01*
X67520Y86726D01*
D02*
G37*
G36*
X63878Y84055D02*
X60335D01*
Y77953D01*
X61103D01*
Y76019D01*
X60954Y75901D01*
X60603Y75750D01*
X60274Y75886D01*
X59804D01*
X59370Y75706D01*
X59038Y75374D01*
X58858Y74940D01*
Y74470D01*
X59038Y74036D01*
X59370Y73703D01*
X59804Y73524D01*
X60274D01*
X60677Y73690D01*
X60740Y73701D01*
X61285Y73572D01*
X61397Y73405D01*
X64645Y70157D01*
X64970Y69939D01*
X65354Y69863D01*
X88378D01*
X88538Y69476D01*
X88979Y68901D01*
X89555Y68459D01*
X90225Y68181D01*
X90945Y68086D01*
X96063D01*
X96782Y68181D01*
X97453Y68459D01*
X98028Y68901D01*
X98470Y69476D01*
X98748Y70147D01*
X98843Y70866D01*
X98748Y71586D01*
X98470Y72256D01*
X98028Y72832D01*
X97453Y73273D01*
X96782Y73551D01*
X96063Y73646D01*
X90945D01*
X90225Y73551D01*
X89555Y73273D01*
X88979Y72832D01*
X88538Y72256D01*
X88378Y71870D01*
X65770D01*
X63110Y74530D01*
Y77953D01*
X63878D01*
Y84055D01*
D02*
G37*
G36*
X27203Y76181D02*
X26734D01*
X26300Y76001D01*
X25967Y75669D01*
X25787Y75235D01*
Y74765D01*
X25967Y74331D01*
X26300Y73999D01*
X26734Y73819D01*
X27203D01*
X27637Y73999D01*
X27970Y74331D01*
X28150Y74765D01*
Y75235D01*
X27970Y75669D01*
X27637Y76001D01*
X27203Y76181D01*
D02*
G37*
G36*
X81829Y65453D02*
X81360D01*
X80926Y65273D01*
X80593Y64941D01*
X80413Y64507D01*
Y64037D01*
X80593Y63603D01*
X80926Y63270D01*
X81360Y63090D01*
X81829D01*
X82263Y63270D01*
X82596Y63603D01*
X82776Y64037D01*
Y64507D01*
X82596Y64941D01*
X82263Y65273D01*
X81829Y65453D01*
D02*
G37*
G36*
X58366Y84055D02*
X54823D01*
Y82007D01*
X45631D01*
X45247Y81931D01*
X44922Y81713D01*
X25235Y62027D01*
X14339D01*
X14179Y62414D01*
X13737Y62989D01*
X13161Y63431D01*
X12491Y63709D01*
X11772Y63803D01*
X6653D01*
X5934Y63709D01*
X5264Y63431D01*
X4688Y62989D01*
X4246Y62414D01*
X3968Y61743D01*
X3874Y61024D01*
X3968Y60304D01*
X4246Y59634D01*
X4488Y59319D01*
X2597Y57428D01*
X2380Y57102D01*
X2303Y56718D01*
Y20906D01*
X2380Y20522D01*
X2597Y20196D01*
X4232Y18561D01*
Y9350D01*
X11319D01*
Y19980D01*
X8779D01*
Y20844D01*
X22561Y34626D01*
X36085D01*
X36270Y34203D01*
X36270D01*
Y19636D01*
X39996D01*
Y17274D01*
X36270D01*
Y9561D01*
X32181D01*
X31398Y10344D01*
Y19980D01*
X24311D01*
Y9350D01*
X30404D01*
X31393Y8361D01*
X31621Y8209D01*
X31890Y8156D01*
X36270D01*
Y2707D01*
X45128D01*
Y17274D01*
X41401D01*
Y19636D01*
X45128D01*
Y26217D01*
X49163D01*
Y21506D01*
X51813D01*
X51919Y21506D01*
Y21506D01*
X52313D01*
Y21506D01*
X54075D01*
X56442Y19139D01*
X56670Y18987D01*
X56939Y18933D01*
X64140D01*
X64439Y18634D01*
X64873Y18455D01*
X65343D01*
X65777Y18634D01*
X66110Y18967D01*
X66289Y19401D01*
Y19871D01*
X66110Y20305D01*
X65777Y20637D01*
X65343Y20817D01*
X64873D01*
X64439Y20637D01*
X64140Y20338D01*
X57230D01*
X56524Y21044D01*
X56716Y21506D01*
X58218D01*
Y21506D01*
X58612D01*
Y21506D01*
X61368D01*
Y21506D01*
X61762D01*
Y21506D01*
X64518D01*
Y30873D01*
X64980Y31064D01*
X67910Y28134D01*
X68138Y27981D01*
X68407Y27928D01*
X68553D01*
Y19636D01*
X72280D01*
Y17274D01*
X68553D01*
Y2707D01*
X77411D01*
Y9288D01*
X82284D01*
Y7382D01*
X88386D01*
Y10925D01*
X82284D01*
Y10693D01*
X77411D01*
Y17274D01*
X73685D01*
Y19636D01*
X77411D01*
Y24962D01*
X80602D01*
X80901Y24663D01*
X81335Y24483D01*
X81805D01*
X82239Y24663D01*
X82571Y24995D01*
X82751Y25429D01*
Y25899D01*
X82571Y26333D01*
X82239Y26666D01*
X81805Y26845D01*
X81335D01*
X80901Y26666D01*
X80602Y26367D01*
X77411D01*
Y33508D01*
X77873Y33700D01*
X84331Y27242D01*
Y16437D01*
X82284D01*
Y12894D01*
X88386D01*
Y16437D01*
X86338D01*
Y27657D01*
X86262Y28041D01*
X86044Y28367D01*
X77875Y36536D01*
X77875Y36536D01*
X71673Y42739D01*
Y43701D01*
X73228D01*
Y49409D01*
X69234D01*
X57500Y61144D01*
Y61910D01*
X58465D01*
Y69390D01*
X57549D01*
Y77953D01*
X58366D01*
Y84055D01*
D02*
G37*
G36*
X96063Y63803D02*
X90945D01*
X90225Y63709D01*
X89555Y63431D01*
X88979Y62989D01*
X88538Y62414D01*
X88260Y61743D01*
X88165Y61024D01*
X88260Y60304D01*
X88538Y59634D01*
X88979Y59058D01*
X89555Y58616D01*
X90225Y58339D01*
X90945Y58244D01*
X96063D01*
X96782Y58339D01*
X97453Y58616D01*
X98028Y59058D01*
X98470Y59634D01*
X98748Y60304D01*
X98843Y61024D01*
X98748Y61743D01*
X98470Y62414D01*
X98028Y62989D01*
X97453Y63431D01*
X96782Y63709D01*
X96063Y63803D01*
D02*
G37*
G36*
X70904Y65945D02*
X70434D01*
X70000Y65765D01*
X69668Y65433D01*
X69488Y64999D01*
Y64529D01*
X69668Y64095D01*
X69967Y63796D01*
Y58661D01*
X68110D01*
Y52953D01*
X73228D01*
Y58661D01*
X71372D01*
Y63796D01*
X71671Y64095D01*
X71850Y64529D01*
Y64999D01*
X71671Y65433D01*
X71338Y65765D01*
X70904Y65945D01*
D02*
G37*
G36*
X96063Y53961D02*
X90945D01*
X90225Y53866D01*
X89555Y53588D01*
X88979Y53147D01*
X88538Y52571D01*
X88260Y51901D01*
X88165Y51181D01*
X88260Y50462D01*
X88538Y49791D01*
X88979Y49216D01*
X89555Y48774D01*
X90225Y48496D01*
X90945Y48401D01*
X96063D01*
X96782Y48496D01*
X97453Y48774D01*
X98028Y49216D01*
X98470Y49791D01*
X98748Y50462D01*
X98843Y51181D01*
X98748Y51901D01*
X98470Y52571D01*
X98028Y53147D01*
X97453Y53588D01*
X96782Y53866D01*
X96063Y53961D01*
D02*
G37*
G36*
Y44118D02*
X90945D01*
X90225Y44023D01*
X89555Y43746D01*
X88979Y43304D01*
X88538Y42728D01*
X88260Y42058D01*
X88165Y41339D01*
X88260Y40619D01*
X88538Y39949D01*
X88979Y39373D01*
X89555Y38931D01*
X90225Y38654D01*
X90945Y38559D01*
X96063D01*
X96782Y38654D01*
X97453Y38931D01*
X98028Y39373D01*
X98470Y39949D01*
X98748Y40619D01*
X98843Y41339D01*
X98748Y42058D01*
X98470Y42728D01*
X98028Y43304D01*
X97453Y43746D01*
X96782Y44023D01*
X96063Y44118D01*
D02*
G37*
G36*
Y34276D02*
X90945D01*
X90225Y34181D01*
X89555Y33903D01*
X88979Y33462D01*
X88538Y32886D01*
X88260Y32215D01*
X88165Y31496D01*
X88260Y30777D01*
X88538Y30106D01*
X88979Y29531D01*
X89555Y29089D01*
X90225Y28811D01*
X90945Y28716D01*
X96063D01*
X96782Y28811D01*
X97453Y29089D01*
X98028Y29531D01*
X98470Y30106D01*
X98748Y30777D01*
X98843Y31496D01*
X98748Y32215D01*
X98470Y32886D01*
X98028Y33462D01*
X97453Y33903D01*
X96782Y34181D01*
X96063Y34276D01*
D02*
G37*
%LPD*%
G36*
X58218Y175368D02*
X58218Y175368D01*
X58661Y175137D01*
X58661Y174861D01*
Y171752D01*
X61355D01*
Y162521D01*
X60944Y162411D01*
X60316Y162048D01*
X59803Y161535D01*
X59440Y160906D01*
X59252Y160205D01*
Y159480D01*
X59440Y158779D01*
X59803Y158150D01*
X60316Y157637D01*
X60944Y157274D01*
X61645Y157087D01*
X62371D01*
X63072Y157274D01*
X63396Y157461D01*
X70951Y149906D01*
Y129626D01*
X69144D01*
X69010Y130070D01*
Y147146D01*
X68956Y147415D01*
X68804Y147642D01*
X56697Y159749D01*
X56470Y159901D01*
X56201Y159955D01*
X45079D01*
Y160205D01*
X44891Y160906D01*
X44528Y161535D01*
X44015Y162048D01*
X43387Y162411D01*
X43025Y162507D01*
Y171653D01*
X44094D01*
Y174726D01*
X44094Y175039D01*
X44560Y175281D01*
X46141Y173700D01*
X46466Y173482D01*
X46850Y173406D01*
X53962D01*
X54391Y173228D01*
X54861D01*
X55290Y173406D01*
X55807D01*
X56191Y173482D01*
X56517Y173700D01*
X58196Y175379D01*
X58218Y175368D01*
D02*
G37*
G36*
X62415Y117733D02*
X61433Y116752D01*
X42297D01*
X41869Y116929D01*
X41399D01*
X40970Y116752D01*
X36368D01*
Y117028D01*
X32908D01*
X32641Y117528D01*
X32701Y117618D01*
X36368D01*
Y118195D01*
X62224D01*
X62415Y117733D01*
D02*
G37*
G36*
X54823Y77953D02*
X55542D01*
Y69390D01*
X54528D01*
Y61910D01*
X55493D01*
Y60728D01*
X55569Y60344D01*
X55787Y60019D01*
X68090Y47716D01*
X68110Y47702D01*
Y43701D01*
X69666D01*
Y42323D01*
X69742Y41939D01*
X69960Y41613D01*
X74281Y37292D01*
X74089Y36830D01*
X66634D01*
X66250Y36754D01*
X65924Y36536D01*
X65707Y36211D01*
X65630Y35827D01*
X65707Y35443D01*
X65924Y35117D01*
X66250Y34900D01*
X66634Y34823D01*
X76433D01*
X76516Y34703D01*
X76252Y34203D01*
X68553D01*
Y30131D01*
X68091Y29940D01*
X64906Y33125D01*
X64678Y33277D01*
X64409Y33330D01*
X52215D01*
X51946Y33277D01*
X51718Y33125D01*
X50926Y32333D01*
X49220D01*
X49182Y32333D01*
X49103Y32348D01*
X48710Y32445D01*
X48541Y32854D01*
X48208Y33186D01*
X47774Y33366D01*
X47304D01*
X46870Y33186D01*
X46538Y32854D01*
X46358Y32420D01*
Y31950D01*
X46538Y31516D01*
X46870Y31184D01*
X47304Y31004D01*
X47774D01*
X48208Y31184D01*
X48541Y31516D01*
X48663Y31812D01*
X49163Y31713D01*
Y27622D01*
X45128D01*
Y34203D01*
X45128D01*
X45312Y34626D01*
X59941D01*
X60325Y34703D01*
X60650Y34920D01*
X60868Y35246D01*
X60944Y35630D01*
X60868Y36014D01*
X60650Y36340D01*
X60325Y36557D01*
X59941Y36633D01*
X22146D01*
X21762Y36557D01*
X21436Y36340D01*
X14989Y29893D01*
X14527Y30084D01*
Y34252D01*
X4310D01*
Y39103D01*
X4811Y39279D01*
X5264Y38931D01*
X5934Y38654D01*
X6653Y38559D01*
X11772D01*
X12491Y38654D01*
X13161Y38931D01*
X13737Y39373D01*
X14179Y39949D01*
X14457Y40619D01*
X14551Y41339D01*
X14457Y42058D01*
X14179Y42728D01*
X13737Y43304D01*
X13161Y43746D01*
X12491Y44023D01*
X11772Y44118D01*
X6653D01*
X5934Y44023D01*
X5264Y43746D01*
X4811Y43398D01*
X4310Y43574D01*
Y48945D01*
X4811Y49121D01*
X5264Y48774D01*
X5934Y48496D01*
X6653Y48401D01*
X11772D01*
X12491Y48496D01*
X13161Y48774D01*
X13737Y49216D01*
X14179Y49791D01*
X14457Y50462D01*
X14459Y50479D01*
X25398D01*
X31984Y43893D01*
X32212Y43741D01*
X32480Y43687D01*
X39862D01*
X40131Y43741D01*
X40359Y43893D01*
X43607Y47141D01*
X43759Y47369D01*
X43813Y47638D01*
Y49016D01*
X44882D01*
Y55118D01*
X42332D01*
X41451Y56000D01*
Y62303D01*
X42717D01*
Y69784D01*
X38780D01*
Y66746D01*
X35515D01*
X35216Y67045D01*
X34782Y67224D01*
X34312D01*
X33878Y67045D01*
X33546Y66712D01*
X33366Y66278D01*
Y65808D01*
X33546Y65374D01*
X33878Y65042D01*
X34312Y64862D01*
X34782D01*
X35216Y65042D01*
X35515Y65341D01*
X38780D01*
Y62303D01*
X40046D01*
Y55709D01*
X40099Y55440D01*
X40251Y55212D01*
X41339Y54125D01*
Y49016D01*
X42408D01*
Y47929D01*
X39571Y45092D01*
X32771D01*
X26186Y51678D01*
X25958Y51830D01*
X25689Y51884D01*
X14459D01*
X14457Y51901D01*
X14179Y52571D01*
X13737Y53147D01*
X13161Y53588D01*
X12491Y53866D01*
X11772Y53961D01*
X6653D01*
X5934Y53866D01*
X5264Y53588D01*
X4811Y53241D01*
X4310Y53417D01*
Y56303D01*
X6100Y58093D01*
X6101Y58093D01*
X6299Y58291D01*
X6653Y58244D01*
X11772D01*
X12491Y58339D01*
X13161Y58616D01*
X13737Y59058D01*
X14179Y59634D01*
X14339Y60020D01*
X25651D01*
X26035Y60097D01*
X26361Y60314D01*
X46047Y80000D01*
X54823D01*
Y77953D01*
D02*
G37*
G36*
X13375Y28278D02*
X7066Y21969D01*
X6848Y21644D01*
X6772Y21260D01*
Y19980D01*
X5652D01*
X4310Y21321D01*
Y28740D01*
X13183D01*
X13375Y28278D01*
D02*
G37*
%LPC*%
G36*
X39370Y55118D02*
X35827D01*
Y49016D01*
X39370D01*
Y55118D01*
D02*
G37*
G36*
X46101Y48819D02*
X45631D01*
X45197Y48639D01*
X44865Y48307D01*
X44685Y47873D01*
Y47403D01*
X44865Y46969D01*
X45197Y46637D01*
X45631Y46457D01*
X46101D01*
X46535Y46637D01*
X46867Y46969D01*
X47047Y47403D01*
Y47873D01*
X46867Y48307D01*
X46535Y48639D01*
X46101Y48819D01*
D02*
G37*
G36*
X49251Y42323D02*
X48781D01*
X48347Y42143D01*
X48015Y41811D01*
X47835Y41377D01*
Y40907D01*
X48015Y40473D01*
X48347Y40140D01*
X48781Y39961D01*
X49251D01*
X49685Y40140D01*
X50017Y40473D01*
X50197Y40907D01*
Y41377D01*
X50017Y41811D01*
X49685Y42143D01*
X49251Y42323D01*
D02*
G37*
%LPD*%
D16*
X88090Y222736D02*
D03*
X72342Y223130D02*
D03*
X56496Y65650D02*
D03*
X40748Y66043D02*
D03*
D17*
X72982Y9990D02*
D03*
Y26919D02*
D03*
X40699Y9990D02*
D03*
X40699Y26919D02*
D03*
D18*
X63140D02*
D03*
X50541D02*
D03*
X53691D02*
D03*
X56841D02*
D03*
X59990D02*
D03*
D19*
X71654Y106299D02*
D03*
D20*
Y109449D02*
D03*
Y112598D02*
D03*
Y115748D02*
D03*
Y118898D02*
D03*
Y122047D02*
D03*
Y125197D02*
D03*
Y128347D02*
D03*
X33858D02*
D03*
Y125197D02*
D03*
Y122047D02*
D03*
Y118898D02*
D03*
Y115748D02*
D03*
Y112598D02*
D03*
Y109449D02*
D03*
Y106299D02*
D03*
D21*
X63779Y136221D02*
D03*
Y98425D02*
D03*
X60630Y136221D02*
D03*
Y98425D02*
D03*
X57480Y136221D02*
D03*
Y98425D02*
D03*
X54331Y136221D02*
D03*
Y98425D02*
D03*
X51181Y136221D02*
D03*
Y98425D02*
D03*
X48031Y136221D02*
D03*
Y98425D02*
D03*
X44882Y136221D02*
D03*
Y98425D02*
D03*
X41732Y136221D02*
D03*
Y98425D02*
D03*
D22*
X74213Y79331D02*
D03*
Y88583D02*
D03*
X70669Y55807D02*
D03*
Y46555D02*
D03*
D23*
X37598Y52067D02*
D03*
X43110D02*
D03*
X56595Y81004D02*
D03*
X62106D02*
D03*
D24*
X85335Y14665D02*
D03*
Y9154D02*
D03*
X41043Y173425D02*
D03*
Y178937D02*
D03*
X61713Y179035D02*
D03*
Y173524D02*
D03*
D25*
X27854Y14665D02*
D03*
X7776D02*
D03*
D41*
X80413Y161614D02*
X82972Y159055D01*
Y90248D02*
X90154Y83066D01*
X82972Y90248D02*
Y159055D01*
X92063Y80709D02*
X93504D01*
X90154Y82618D02*
X92063Y80709D01*
X90154Y82618D02*
Y83066D01*
X78051Y159252D02*
X80413Y161614D01*
X86417Y167618D01*
X64409Y32628D02*
X68407Y28630D01*
X71271D01*
X72982Y26919D01*
X74237Y25664D02*
X81570D01*
X72982Y26919D02*
X74237Y25664D01*
X40699Y26919D02*
X50541D01*
X52215Y32628D02*
X64409D01*
X50541Y30955D02*
X52215Y32628D01*
X50541Y26919D02*
Y30955D01*
X72982Y9990D02*
Y26919D01*
Y9990D02*
X84498D01*
X85335Y9154D01*
X39567Y8858D02*
X40699Y9990D01*
X31890Y8858D02*
X39567D01*
X86417Y215158D02*
X88090Y216831D01*
X86417Y167618D02*
Y215158D01*
X21949Y170965D02*
Y209842D01*
X25394Y213287D01*
X36319D01*
X21949Y170965D02*
X44980Y147933D01*
X36319Y213287D02*
X42165Y219134D01*
X18996Y216634D02*
X27854Y225492D01*
X44193D01*
X47835Y229134D01*
X52165D01*
X50098Y227067D02*
X52165Y229134D01*
X78051Y127067D02*
Y159252D01*
X79921Y97638D02*
Y155020D01*
X39862Y86024D02*
X67520D01*
X36369Y82531D02*
X39862Y86024D01*
X67520D02*
X74213Y79331D01*
X62205Y88976D02*
X63779Y90551D01*
Y98425D01*
X88090Y216831D02*
Y222736D01*
Y224508D01*
X18996Y179075D02*
Y216634D01*
X12115Y172193D02*
X18996Y179075D01*
X88090Y224508D02*
X89370Y225787D01*
X39862Y44390D02*
X43110Y47638D01*
X32480Y44390D02*
X39862D01*
X43110Y47638D02*
Y52067D01*
Y53347D01*
X25689Y51181D02*
X32480Y44390D01*
X56939Y19636D02*
X65108D01*
X53691Y22884D02*
Y26919D01*
Y22884D02*
X56939Y19636D01*
X63779Y136221D02*
Y147835D01*
Y136221D02*
X63779Y136221D01*
X60630Y136221D02*
Y147835D01*
Y136221D02*
X60630Y136221D01*
X57382Y136319D02*
Y147835D01*
Y136319D02*
X57480Y136221D01*
X54035Y136516D02*
X54331Y136221D01*
X54035Y136516D02*
Y147736D01*
X51083Y136319D02*
X51181Y136221D01*
X51083Y136319D02*
Y147835D01*
X48031Y136221D02*
X48130Y136319D01*
Y147835D01*
X45070Y136409D02*
Y147843D01*
X44980Y147933D02*
X45070Y147843D01*
X44882Y136221D02*
X45070Y136409D01*
X9212Y169291D02*
X10205D01*
X44644Y105709D02*
X44891Y105463D01*
X27756Y114026D02*
X32628Y118898D01*
X33858Y106299D02*
X34449Y105709D01*
X48031Y92421D02*
X48031Y92421D01*
X33858Y112598D02*
X34055Y112402D01*
X33858Y109449D02*
X40748D01*
X44882Y92421D02*
X44882Y92421D01*
X32628Y118898D02*
X33858D01*
X39596Y121457D02*
X39862D01*
X41732Y93504D02*
Y98425D01*
X40748Y109449D02*
X42421Y107776D01*
X34449Y105709D02*
X44644D01*
X44891Y105463D02*
X45157D01*
X44882Y92421D02*
Y98425D01*
X41732Y93504D02*
X41732Y93504D01*
X34055Y112402D02*
X48819D01*
X60630Y92126D02*
Y98425D01*
X33858Y122047D02*
X39005D01*
X35089Y128347D02*
X39222Y124213D01*
X27756Y113287D02*
Y114026D01*
X41732Y92224D02*
Y93504D01*
X39222Y124213D02*
X39272D01*
X33858Y128347D02*
X35089D01*
X48031Y92421D02*
Y98425D01*
X39005Y122047D02*
X39596Y121457D01*
X51181Y92421D02*
Y98425D01*
X57480Y92126D02*
Y98425D01*
X54331Y92126D02*
Y98425D01*
X57480Y92126D02*
X57480Y92126D01*
X60630Y92126D02*
X60630Y92126D01*
X70669Y55807D02*
Y64764D01*
X12375Y73675D02*
X27677Y88976D01*
X62205D01*
X31605Y76382D02*
X36369Y81146D01*
X34547Y66043D02*
X40748D01*
X9212Y51181D02*
X25689D01*
X40748Y55709D02*
X43110Y53347D01*
X40748Y55709D02*
Y66043D01*
X27854Y12894D02*
X31890Y8858D01*
X27854Y12894D02*
Y14665D01*
X40699Y9990D02*
Y26919D01*
X36369Y81146D02*
Y82531D01*
X10466Y70866D02*
X12375Y72776D01*
X9212Y70866D02*
X10466D01*
X12375Y72776D02*
Y73675D01*
X16339Y85276D02*
Y93012D01*
X11772Y80709D02*
X16339Y85276D01*
X9212Y80709D02*
X11772D01*
X65354Y101230D02*
X70423Y106299D01*
X24557Y101230D02*
X65354D01*
X11772Y90551D02*
X23435Y102215D01*
X16339Y93012D02*
X24557Y101230D01*
X23435Y102215D02*
X47785D01*
X70423Y106299D02*
X71654D01*
X47785Y102215D02*
X55020Y109449D01*
X9212Y90551D02*
X11772D01*
X55020Y109449D02*
X71654D01*
X33858Y118898D02*
X63189D01*
X68012Y123721D01*
X10205Y169291D02*
X11417D01*
X10205D02*
X12115Y171201D01*
Y172193D01*
X68307Y127313D02*
Y147146D01*
X56201Y159252D02*
X68307Y147146D01*
X42913Y159252D02*
X56201D01*
X42323Y159843D02*
X42913Y159252D01*
X71654Y128347D02*
Y150197D01*
X62008Y159843D02*
Y159843D01*
Y159843D02*
X71654Y150197D01*
X41142Y136811D02*
Y139567D01*
Y136811D02*
X41732Y136221D01*
X11417Y169291D02*
X41142Y139567D01*
X74606Y123622D02*
X78051Y127067D01*
X69252Y123622D02*
X74606D01*
X68012Y123721D02*
X69154D01*
X69252Y123622D01*
X68307Y127313D02*
X70423Y125197D01*
X42323Y159843D02*
Y172343D01*
X61713Y173524D02*
X62057Y173179D01*
Y159892D02*
Y173179D01*
X62008Y159843D02*
X62057Y159892D01*
X41043Y173425D02*
X41240D01*
X42323Y172343D01*
X70423Y125197D02*
X71654D01*
D42*
X68385Y91732D02*
X76968Y100316D01*
Y115748D01*
X74213Y88583D02*
Y88878D01*
X69771Y90453D02*
X72638D01*
X68385Y91732D02*
X68491D01*
X72638Y90453D02*
X74213Y88878D01*
X68491Y91732D02*
X69771Y90453D01*
X70374Y205020D02*
X76279Y199114D01*
Y181791D02*
Y199114D01*
X70374Y205020D02*
X72342Y206988D01*
Y223130D01*
X84055Y14665D02*
X85335D01*
X41634Y115748D02*
X61849D01*
X76968D02*
X78150Y116929D01*
X33858Y115748D02*
X41634D01*
X41634Y115748D01*
X64999Y118898D02*
X71654D01*
X64999Y112598D02*
X71654D01*
X25098Y127362D02*
X27264Y125197D01*
X33858D01*
X78150Y116929D02*
Y122047D01*
X41634Y115748D02*
X41634Y115748D01*
X61849D02*
X64999Y118898D01*
X61849Y115748D02*
X64999Y112598D01*
X71654Y115748D02*
X76968D01*
X71654Y122047D02*
X71703Y122097D01*
X78100D01*
X78150Y122146D01*
X78150Y122047D02*
X78150Y122047D01*
X9212Y61024D02*
X25651D01*
X7612D02*
X9212D01*
X70669Y46555D02*
Y46850D01*
Y42323D02*
Y46555D01*
Y42323D02*
X77165Y35827D01*
X85335Y27657D01*
X66634Y35827D02*
X77165D01*
X22146Y35630D02*
X59941D01*
X7776Y16437D02*
Y21260D01*
X22146Y35630D01*
X7776Y14665D02*
Y16437D01*
X56496Y65650D02*
X56545Y65699D01*
Y80955D02*
X56595Y81004D01*
X56545Y65699D02*
Y80955D01*
X56496Y60728D02*
X68799Y48425D01*
X69095D02*
X70669Y46850D01*
X68799Y48425D02*
X69095D01*
X56496Y60728D02*
Y65650D01*
X65354Y70866D02*
X93504D01*
X62106Y74114D02*
Y81004D01*
Y74114D02*
X65354Y70866D01*
X5391Y58802D02*
Y58802D01*
X3307Y20906D02*
Y56718D01*
X5391Y58802D02*
X7612Y61024D01*
X3307Y56718D02*
X5391Y58802D01*
X3307Y20906D02*
X7776Y16437D01*
X85335Y14665D02*
Y27657D01*
X45631Y81004D02*
X56595D01*
X25651Y61024D02*
X45631Y81004D01*
X42323Y178937D02*
X46850Y174409D01*
X54626D01*
X55807D01*
X60433Y179035D02*
X61713D01*
X55807Y174409D02*
X60433Y179035D01*
D43*
X93504Y198819D02*
D03*
X9212Y31496D02*
D03*
D44*
X93504D02*
D03*
Y41339D02*
D03*
Y51181D02*
D03*
Y61024D02*
D03*
Y70866D02*
D03*
Y80709D02*
D03*
Y90551D02*
D03*
Y100394D02*
D03*
Y110236D02*
D03*
Y120079D02*
D03*
Y129921D02*
D03*
Y139764D02*
D03*
Y149606D02*
D03*
Y159449D02*
D03*
Y169291D02*
D03*
Y179134D02*
D03*
Y188976D02*
D03*
X9212Y198819D02*
D03*
Y188976D02*
D03*
Y179134D02*
D03*
Y169291D02*
D03*
Y159449D02*
D03*
Y149606D02*
D03*
Y139764D02*
D03*
Y129921D02*
D03*
Y120079D02*
D03*
Y110236D02*
D03*
Y100394D02*
D03*
Y90551D02*
D03*
Y80709D02*
D03*
Y70866D02*
D03*
Y61024D02*
D03*
Y51181D02*
D03*
Y41339D02*
D03*
D45*
X62008Y159843D02*
D03*
X42323D02*
D03*
X42165Y229134D02*
D03*
X32165D02*
D03*
X42165Y219134D02*
D03*
X32165D02*
D03*
X52165D02*
D03*
D46*
Y229134D02*
D03*
D47*
X47539Y32185D02*
D03*
X27067Y183338D02*
D03*
X79921Y97638D02*
D03*
Y155020D02*
D03*
X68385Y91732D02*
D03*
X76279Y181791D02*
D03*
X79626Y209055D02*
D03*
X98917Y232579D02*
D03*
X81570Y25664D02*
D03*
X81595Y64272D02*
D03*
X49016Y41142D02*
D03*
X45866Y47638D02*
D03*
X42421Y84055D02*
D03*
X65108Y19636D02*
D03*
X63779Y147835D02*
D03*
X60630D02*
D03*
X57382D02*
D03*
X54035Y147736D02*
D03*
X51083Y147835D02*
D03*
X48130D02*
D03*
X44980Y147933D02*
D03*
X27756Y113287D02*
D03*
X25098Y127362D02*
D03*
X78150Y122146D02*
D03*
X39272Y124213D02*
D03*
X39862Y121457D02*
D03*
X42421Y107776D02*
D03*
X45157Y105463D02*
D03*
X48031Y92421D02*
D03*
X48819Y112402D02*
D03*
X44882Y92421D02*
D03*
X41634Y115748D02*
D03*
X41732Y92224D02*
D03*
X51181Y92421D02*
D03*
X54331Y92126D02*
D03*
X57480Y92126D02*
D03*
X60630Y92126D02*
D03*
X26969Y75000D02*
D03*
X70669Y64764D02*
D03*
X60039Y74705D02*
D03*
X30807Y84646D02*
D03*
X31605Y76382D02*
D03*
X34547Y66043D02*
D03*
X65748Y130315D02*
D03*
X70374Y205020D02*
D03*
X54626Y174409D02*
D03*
M02*
