G04*
G04 #@! TF.GenerationSoftware,Altium Limited,Altium Designer,21.0.9 (235)*
G04*
G04 Layer_Color=8388736*
%FSLAX25Y25*%
%MOIN*%
G70*
G04*
G04 #@! TF.SameCoordinates,50ADF09E-C92B-48F0-A8A5-EF6B86B84264*
G04*
G04*
G04 #@! TF.FilePolarity,Negative*
G04*
G01*
G75*
%ADD21R,0.09658X0.02769*%
%ADD22R,0.14580X0.08871*%
%ADD23R,0.01824X0.03162*%
%ADD24R,0.04737X0.06115*%
%ADD25R,0.02769X0.04343*%
%ADD26C,0.06698*%
%ADD27R,0.06698X0.06698*%
%ADD28C,0.03162*%
%ADD29R,0.03162X0.03162*%
%ADD30C,0.03556*%
%ADD31R,0.03556X0.03556*%
%ADD32C,0.02769*%
%ADD33C,0.02375*%
D21*
X517571Y363441D02*
D03*
Y360291D02*
D03*
Y357142D02*
D03*
Y353992D02*
D03*
Y350842D02*
D03*
D22*
X534500Y341000D02*
D03*
X517571Y341000D02*
D03*
X534500Y373284D02*
D03*
X517571D02*
D03*
D23*
X406000Y441500D02*
D03*
X410724D02*
D03*
X410059Y455295D02*
D03*
X405335D02*
D03*
X252559Y454295D02*
D03*
X247835D02*
D03*
X252224Y432500D02*
D03*
X247500D02*
D03*
D24*
X405669Y414000D02*
D03*
X410000D02*
D03*
X405335Y470000D02*
D03*
X409665D02*
D03*
X252500Y472000D02*
D03*
X248169D02*
D03*
X252665Y414000D02*
D03*
X248335D02*
D03*
D25*
X364000Y320500D02*
D03*
X359866D02*
D03*
X370366D02*
D03*
X374500D02*
D03*
D26*
X291000Y284000D02*
D03*
X290500Y312500D02*
D03*
X273500Y284000D02*
D03*
X329000D02*
D03*
X328500Y312500D02*
D03*
X311500Y284000D02*
D03*
X237500D02*
D03*
X254500Y312500D02*
D03*
X255000Y284000D02*
D03*
D27*
X273000Y312000D02*
D03*
X311000D02*
D03*
X237000D02*
D03*
D28*
X522500Y410000D02*
D03*
X512500D02*
D03*
X502500D02*
D03*
X492500D02*
D03*
X532500Y470000D02*
D03*
X522500D02*
D03*
X512500D02*
D03*
X532500Y410000D02*
D03*
X502539Y470000D02*
D03*
X439539Y470500D02*
D03*
X469500Y410500D02*
D03*
X449500Y470500D02*
D03*
X459500D02*
D03*
X469500D02*
D03*
X429500Y410500D02*
D03*
X439500D02*
D03*
X449500D02*
D03*
X459500D02*
D03*
X350039Y471500D02*
D03*
X380000Y411500D02*
D03*
X360000Y471500D02*
D03*
X370000D02*
D03*
X380000D02*
D03*
X340000Y411500D02*
D03*
X350000D02*
D03*
X360000D02*
D03*
X370000D02*
D03*
X217500Y414000D02*
D03*
X207500D02*
D03*
X197500D02*
D03*
X187500D02*
D03*
X227500Y474000D02*
D03*
X217500D02*
D03*
X207500D02*
D03*
X227500Y414000D02*
D03*
X197539Y474000D02*
D03*
X153000Y414000D02*
D03*
X143000D02*
D03*
X133000D02*
D03*
X123000D02*
D03*
X163000Y474000D02*
D03*
X153000D02*
D03*
X143000D02*
D03*
X163000Y414000D02*
D03*
X133039Y474000D02*
D03*
X305000Y411500D02*
D03*
X295000D02*
D03*
X285000D02*
D03*
X275000D02*
D03*
X315000Y471500D02*
D03*
X305000D02*
D03*
X295000D02*
D03*
X315000Y411500D02*
D03*
X285039Y471500D02*
D03*
D29*
X492500Y470000D02*
D03*
X429500Y470500D02*
D03*
X340000Y471500D02*
D03*
X187500Y474000D02*
D03*
X123000D02*
D03*
X275000Y471500D02*
D03*
D30*
X293008Y381965D02*
D03*
X283165Y381748D02*
D03*
X413087Y348697D02*
D03*
X403342Y348500D02*
D03*
X393402Y348598D02*
D03*
X383067Y348500D02*
D03*
X373323Y348598D02*
D03*
X362772Y348402D02*
D03*
X353343D02*
D03*
X343500Y348500D02*
D03*
X322929Y348303D02*
D03*
X313480Y348500D02*
D03*
X303244Y348402D02*
D03*
X293106Y348303D02*
D03*
X333165Y348598D02*
D03*
X413185Y381866D02*
D03*
X403441Y382161D02*
D03*
X393402Y381965D02*
D03*
X383165Y381669D02*
D03*
X372929Y382358D02*
D03*
X362693Y381965D02*
D03*
X352850Y381866D02*
D03*
X343106Y381669D02*
D03*
X333461Y382260D02*
D03*
X323323D02*
D03*
X312890Y382063D02*
D03*
X303343Y381866D02*
D03*
D31*
X283264Y348205D02*
D03*
D32*
X373217Y334362D02*
D03*
X363276Y334264D02*
D03*
D33*
X410931Y436069D02*
D03*
X317000Y363500D02*
D03*
X298000Y364000D02*
D03*
X332000Y362500D02*
D03*
X415000Y268500D02*
D03*
M02*
