G04*
G04 #@! TF.GenerationSoftware,Altium Limited,Altium Designer,21.0.9 (235)*
G04*
G04 Layer_Physical_Order=2*
G04 Layer_Color=16711680*
%FSLAX25Y25*%
%MOIN*%
G70*
G04*
G04 #@! TF.SameCoordinates,50ADF09E-C92B-48F0-A8A5-EF6B86B84264*
G04*
G04*
G04 #@! TF.FilePolarity,Positive*
G04*
G01*
G75*
%ADD12C,0.01000*%
%ADD34C,0.05898*%
%ADD35R,0.05898X0.05898*%
%ADD36C,0.02362*%
%ADD37R,0.02362X0.02362*%
%ADD38C,0.02756*%
%ADD39R,0.02756X0.02756*%
%ADD40C,0.01968*%
%ADD41C,0.01575*%
%ADD42R,0.03740X0.01181*%
%ADD43C,0.00591*%
D12*
X326264Y355500D02*
X333165Y348598D01*
X250500Y355500D02*
X326264D01*
X245213Y353787D02*
X317445D01*
X219779Y373646D02*
X241032Y352394D01*
X309587D01*
X317445Y353787D02*
X322929Y348303D01*
X231000Y351000D02*
X300646D01*
X209859Y372141D02*
X231000Y351000D01*
X235500Y370500D02*
X250500Y355500D01*
X227000Y372000D02*
X245213Y353787D01*
X309587Y352394D02*
X313480Y348500D01*
X300646Y351000D02*
X303244Y348402D01*
X313480Y348500D02*
X313480D01*
X218500Y373646D02*
X219779D01*
X290303Y345500D02*
X293106Y348303D01*
X403342Y348500D02*
X410913Y356071D01*
Y436051D01*
X410931Y436069D01*
X235500Y370500D02*
Y372000D01*
Y373646D01*
X227000Y372000D02*
Y373646D01*
X209500D02*
X209769D01*
X209859Y373555D01*
Y372141D02*
Y373555D01*
X226000Y345500D02*
X290303D01*
X199123Y373791D02*
X199213Y373701D01*
Y372287D02*
X226000Y345500D01*
X199000Y373791D02*
X199123D01*
X199213Y372287D02*
Y373701D01*
X197709Y379591D02*
Y380791D01*
Y379591D02*
X197800Y379500D01*
X176500Y402000D02*
X197709Y380791D01*
X176500Y402000D02*
Y421500D01*
X197800Y379500D02*
X199000D01*
X198854Y390000D02*
X198854D01*
X182500Y406354D02*
Y428546D01*
Y406354D02*
X198854Y390000D01*
X252500Y379354D02*
X262146Y389000D01*
X244000Y379354D02*
X256146Y391500D01*
X235500Y379354D02*
X249646Y393500D01*
X322000Y393500D01*
X227000Y382000D02*
X234500Y389500D01*
X227000Y379354D02*
Y382000D01*
X234500Y389500D02*
Y389500D01*
X198854Y390000D02*
X209500Y379354D01*
X163000Y448046D02*
X182500Y428546D01*
X262146Y389000D02*
X325000Y389000D01*
X256146Y391500D02*
X325000Y391500D01*
Y389000D02*
X347500Y411500D01*
Y468961D01*
X350039Y471500D01*
X325000Y391500D02*
X343500Y410000D01*
Y417500D01*
X340000Y421000D02*
Y471500D01*
Y421000D02*
X343500Y417500D01*
X322000Y393500D02*
X340000Y411500D01*
X234500Y389500D02*
X242000Y397000D01*
X270500D01*
X163000Y448046D02*
Y474000D01*
X270500Y397000D02*
X285000Y411500D01*
X217500Y379354D02*
Y414000D01*
X153000Y445000D02*
X176500Y421500D01*
X153000Y445000D02*
Y474000D01*
D34*
X291000Y284000D02*
D03*
X290500Y312500D02*
D03*
X273500Y284000D02*
D03*
X329000D02*
D03*
X328500Y312500D02*
D03*
X311500Y284000D02*
D03*
X237500D02*
D03*
X254500Y312500D02*
D03*
X255000Y284000D02*
D03*
D35*
X273000Y312000D02*
D03*
X311000D02*
D03*
X237000D02*
D03*
D36*
X522500Y410000D02*
D03*
X512500D02*
D03*
X502500D02*
D03*
X492500D02*
D03*
X532500Y470000D02*
D03*
X522500D02*
D03*
X512500D02*
D03*
X532500Y410000D02*
D03*
X502539Y470000D02*
D03*
X439539Y470500D02*
D03*
X469500Y410500D02*
D03*
X449500Y470500D02*
D03*
X459500D02*
D03*
X469500D02*
D03*
X429500Y410500D02*
D03*
X439500D02*
D03*
X449500D02*
D03*
X459500D02*
D03*
X350039Y471500D02*
D03*
X380000Y411500D02*
D03*
X360000Y471500D02*
D03*
X370000D02*
D03*
X380000D02*
D03*
X340000Y411500D02*
D03*
X350000D02*
D03*
X360000D02*
D03*
X370000D02*
D03*
X217500Y414000D02*
D03*
X207500D02*
D03*
X197500D02*
D03*
X187500D02*
D03*
X227500Y474000D02*
D03*
X217500D02*
D03*
X207500D02*
D03*
X227500Y414000D02*
D03*
X197539Y474000D02*
D03*
X153000Y414000D02*
D03*
X143000D02*
D03*
X133000D02*
D03*
X123000D02*
D03*
X163000Y474000D02*
D03*
X153000D02*
D03*
X143000D02*
D03*
X163000Y414000D02*
D03*
X133039Y474000D02*
D03*
X305000Y411500D02*
D03*
X295000D02*
D03*
X285000D02*
D03*
X275000D02*
D03*
X315000Y471500D02*
D03*
X305000D02*
D03*
X295000D02*
D03*
X315000Y411500D02*
D03*
X285039Y471500D02*
D03*
D37*
X492500Y470000D02*
D03*
X429500Y470500D02*
D03*
X340000Y471500D02*
D03*
X187500Y474000D02*
D03*
X123000D02*
D03*
X275000Y471500D02*
D03*
D38*
X293008Y381965D02*
D03*
X283165Y381748D02*
D03*
X413087Y348697D02*
D03*
X403342Y348500D02*
D03*
X393402Y348598D02*
D03*
X383067Y348500D02*
D03*
X373323Y348598D02*
D03*
X362772Y348402D02*
D03*
X353343D02*
D03*
X343500Y348500D02*
D03*
X322929Y348303D02*
D03*
X313480Y348500D02*
D03*
X303244Y348402D02*
D03*
X293106Y348303D02*
D03*
X333165Y348598D02*
D03*
X413185Y381866D02*
D03*
X403441Y382161D02*
D03*
X393402Y381965D02*
D03*
X383165Y381669D02*
D03*
X372929Y382358D02*
D03*
X362693Y381965D02*
D03*
X352850Y381866D02*
D03*
X343106Y381669D02*
D03*
X333461Y382260D02*
D03*
X323323D02*
D03*
X312890Y382063D02*
D03*
X303343Y381866D02*
D03*
D39*
X283264Y348205D02*
D03*
D40*
X373217Y334362D02*
D03*
X363276Y334264D02*
D03*
D41*
X410931Y436069D02*
D03*
X317000Y363500D02*
D03*
X298000Y364000D02*
D03*
X332000Y362500D02*
D03*
X415000Y268500D02*
D03*
D42*
X244000Y373646D02*
D03*
Y379354D02*
D03*
X235500Y373646D02*
D03*
Y379354D02*
D03*
X227000Y373646D02*
D03*
Y379354D02*
D03*
X218500Y373646D02*
D03*
Y379354D02*
D03*
X209500Y373646D02*
D03*
Y379354D02*
D03*
X252500D02*
D03*
Y373646D02*
D03*
X199000Y379500D02*
D03*
Y373791D02*
D03*
D43*
X227000Y373646D02*
X228279D01*
X209500D02*
X210780D01*
X199000Y373791D02*
X200279D01*
M02*
